<svg height="512pt" viewBox="-38 0 512 512" width="512pt" xmlns="http://www.w3.org/2000/svg"><path d="m347.546875 152.191406v149.992188c0 49.1875-27.335937 91.972656-67.648437 114.007812-18.476563 10.101563-39.671876 15.84375-62.199219 15.84375-71.714844 0-129.851563-58.136718-129.851563-129.851562v-149.992188zm0 0" fill="#f44545"/><path d="m347.546875 152.191406v149.992188c0 49.1875-27.335937 91.972656-67.648437 114.007812-6.308594.949219-12.765626 1.441406-19.34375 1.441406h-.007813c-71.703125 0-129.839844-58.136718-129.839844-129.851562v-135.589844zm0 0" fill="#f95353"/><path d="m390.398438 54.152344v95.433594c0 6.210937-5.027344 11.242187-11.238282 11.242187h-322.921875c-6.210937 0-11.242187-5.03125-11.242187-11.242187v-95.433594zm0 0" fill="#c8d2dc"/><path d="m390.398438 54.152344v80.398437h-275.847657c-6.203125 0-11.230469-5.039062-11.230469-11.238281v-69.160156zm0 0" fill="#dce6eb"/><path d="m406.453125 62.789062h-377.507813c-3.839843 0-6.949218-3.113281-6.949218-6.949218v-41.347656c0-3.835938 3.109375-6.949219 6.949218-6.949219h377.507813c3.835937 0 6.949219 3.113281 6.949219 6.949219v41.347656c0 3.835937-3.113282 6.949218-6.949219 6.949218zm0 0" fill="#b9c3cd"/><path d="m217.789062 335.769531c-12.21875 0-22.449218-9.269531-23.648437-21.433593l-9.824219-99.609376c-1.378906-13.980468 9.605469-26.101562 23.652344-26.101562h19.457031c14.03125 0 25.007813 12.089844 23.65625 26.054688l-9.636719 99.613281c-1.175781 12.179687-11.414062 21.476562-23.65625 21.476562zm0 0" fill="#af2727"/><path d="m239.941406 381.964844c0 12.285156-9.957031 22.242187-22.242187 22.242187-12.285157 0-22.242188-9.957031-22.242188-22.242187s9.957031-22.242188 22.242188-22.242188c12.285156 0 22.242187 9.957032 22.242187 22.242188zm0 0" fill="#af2727"/><path d="m355.089844 168.371094h24.074218c10.355469 0 18.777344-8.425782 18.777344-18.78125v-79.257813h8.511719c7.992187 0 14.492187-6.503906 14.492187-14.492187v-41.347656c0-7.988282-6.5-14.492188-14.492187-14.492188h-377.507813c-7.992187 0-14.492187 6.503906-14.492187 14.492188v41.34375c0 7.992187 6.5 14.496093 14.492187 14.496093h8.511719v27.578125c0 4.167969 3.375 7.542969 7.542969 7.542969s7.542969-3.375 7.542969-7.542969v-27.578125h330.308593v79.257813c0 2.035156-1.652343 3.691406-3.691406 3.691406-16.261718 0-308.003906 0-322.925781 0-2.035156 0-3.691406-1.65625-3.691406-3.691406v-21.503906c0-4.167969-3.375-7.546876-7.542969-7.546876s-7.542969 3.378907-7.542969 7.546876v21.503906c0 10.355468 8.421875 18.78125 18.777344 18.78125h24.074219c.96875 140.425781-3.976563 169.140625 10.515625 169.140625 4.824219 0 8.398437-4.457031 7.375-9.152344-4.847657-22.246094-1.996094-30.175781-2.804688-159.988281h244.609375v133.816406c0 67.4375-54.867187 122.304688-122.304687 122.304688-46.714844 0-89.996094-27.214844-110.269531-69.328126-1.808594-3.753906-6.3125-5.332031-10.070313-3.527343-3.75 1.808593-5.332031 6.316406-3.523437 10.070312 22.46875 46.675781 69.957031 77.875 123.863281 77.871094 75.753906 0 137.390625-61.632813 137.390625-137.390625zm-325.550782-113.125v-40.160156h376.320313v40.160156c-11.464844 0-320.960937 0-376.320313 0zm0 0"/><path d="m217.699219 459.699219c-4.167969 0-7.542969 3.375-7.542969 7.542969v37.214843c0 4.167969 3.375 7.542969 7.542969 7.542969s7.542969-3.375 7.542969-7.542969v-37.214843c0-4.167969-3.375-7.542969-7.542969-7.542969zm0 0"/><path d="m285.273438 453.640625c-1.425782-3.914063-5.75-5.933594-9.667969-4.507813-3.914063 1.425782-5.933594 5.753907-4.507813 9.667969l12.726563 34.972657c1.113281 3.0625 4.007812 4.964843 7.089843 4.964843 5.21875 0 8.882813-5.199219 7.085938-10.125zm0 0"/><path d="m337.03125 420.328125c-2.679688-3.191406-7.4375-3.609375-10.628906-.929687-3.191406 2.679687-3.605469 7.4375-.929688 10.628906l23.921875 28.507812c2.664063 3.175782 7.421875 3.621094 10.628907.929688 3.191406-2.675782 3.605468-7.4375.929687-10.628906zm0 0"/><path d="m406.503906 389.933594-32.226562-18.609375c-3.613282-2.082031-8.222656-.847657-10.304688 2.761719-2.085937 3.609374-.847656 8.222656 2.757813 10.304687l32.230469 18.609375c3.605468 2.078125 8.21875.851562 10.304687-2.761719 2.082031-3.609375.847656-8.222656-2.761719-10.304687zm0 0"/><path d="m429.164062 319-36.652343-6.460938c-4.101563-.726562-8.015625 2.015626-8.738281 6.117188-.722657 4.101562 2.015624 8.015625 6.121093 8.738281l36.648438 6.460938c4.085937.722656 8.011719-2.003907 8.738281-6.117188.722656-4.101562-2.015625-8.015625-6.117188-8.738281zm0 0"/><path d="m383.425781 259.796875c.726563 4.121094 4.660157 6.839844 8.738281 6.117187l36.648438-6.460937c4.101562-.722656 6.84375-4.636719 6.117188-8.738281-.722657-4.105469-4.640626-6.847656-8.738282-6.121094l-36.648437 6.464844c-4.101563.722656-6.839844 4.632812-6.117188 8.738281zm0 0"/><path d="m159.792969 449.132812c-3.917969-1.421874-8.246094.59375-9.667969 4.507813l-12.726562 34.972656c-1.792969 4.921875 1.867187 10.125 7.085937 10.125 3.082031 0 5.976563-1.902343 7.089844-4.964843l12.726562-34.972657c1.425781-3.914062-.59375-8.242187-4.507812-9.667969zm0 0"/><path d="m108.992188 419.398438c-3.191407-2.679688-7.949219-2.261719-10.625.929687l-23.921876 28.507813c-2.679687 3.195312-2.261718 7.953124.929688 10.628906 3.210938 2.695312 7.96875 2.242187 10.625-.929688l23.921875-28.507812c2.679687-3.191406 2.261719-7.949219-.929687-10.628906zm0 0"/><path d="m61.121094 371.324219-32.230469 18.609375c-6.664063 3.847656-3.914063 14.078125 3.78125 14.078125 1.277344 0 2.578125-.328125 3.765625-1.011719l32.226562-18.609375c3.609376-2.082031 4.84375-6.695313 2.761719-10.304687-2.082031-3.609376-6.699219-4.84375-10.304687-2.761719zm0 0"/><path d="m51.621094 318.65625c-.722656-4.101562-4.636719-6.84375-8.738282-6.117188l-36.648437 6.460938c-4.101563.722656-6.84375 4.632812-6.117187 8.738281.726562 4.121094 4.660156 6.839844 8.738281 6.117188l36.648437-6.460938c4.101563-.722656 6.84375-4.636719 6.117188-8.738281zm0 0"/><path d="m6.582031 259.453125c38.773438 6.792969 36.714844 6.578125 37.96875 6.578125 3.59375 0 6.773438-2.578125 7.421875-6.234375.722656-4.105469-2.015625-8.015625-6.121094-8.738281l-36.648437-6.464844c-4.105469-.726562-8.015625 2.019531-8.738281 6.121094-.722656 4.101562 2.015625 8.015625 6.117187 8.738281zm0 0"/><path d="m240.914062 241.445312c-.398437 4.148438 2.636719 7.835938 6.78125 8.238282 4.164063.410156 7.835938-2.636719 8.238282-6.78125 2.722656-28.660156 2.804687-27.886719 2.804687-30.546875 0-17.242188-14.046875-31.273438-31.3125-31.273438h-19.457031c-18.375 0-32.976562 15.84375-31.160156 34.382813l9.824218 99.613281c1.585938 16.097656 14.984376 28.234375 31.160157 28.234375 16.203125 0 29.601562-12.164062 31.164062-28.292969l4.070313-42.082031c.402344-4.148438-2.636719-7.835938-6.78125-8.238281-4.152344-.40625-7.835938 2.636719-8.234375 6.78125l-4.074219 42.082031c-.808594 8.359375-7.75 14.664062-16.148438 14.664062-8.378906 0-15.320312-6.292968-16.140624-14.632812-10.398438-105.699219-9.90625-99.703125-9.90625-101.238281 0-8.925781 7.28125-16.1875 16.226562-16.1875h19.457031c9.429688 0 17.078125 8.085937 16.148438 17.785156zm0 0"/><path d="m217.699219 352.179688c-16.425781 0-29.785157 13.359374-29.785157 29.785156 0 16.421875 13.359376 29.785156 29.785157 29.785156 16.421875 0 29.785156-13.363281 29.785156-29.785156 0-16.425782-13.363281-29.785156-29.785156-29.785156zm0 44.484374c-8.105469 0-14.699219-6.59375-14.699219-14.699218 0-8.105469 6.59375-14.699219 14.699219-14.699219s14.699219 6.59375 14.699219 14.699219c0 8.105468-6.59375 14.699218-14.699219 14.699218zm0 0"/></svg>