<svg enable-background="new 0 0 100 100" height="512" viewBox="0 0 100 100" width="512" xmlns="http://www.w3.org/2000/svg"><path d="m63.4635773 5v42.3166885l-44.2210465 10.8262177-5.7972536-.0102768c-.3892841 0-.7890987-.0315933-1.1994457-.1158447-2.7355156-.5365982-4.5978084-3.1037369-4.5978084-5.8917847v-47.125z" fill="#ececec"/><path d="m25.0387573 20.6591873h-.0000648c-3.202116 0-5.7979603 2.5959072-5.7979603 5.7980232v31.6841545h11.5959854v-31.6841545c0-3.202116-2.5958443-5.7980232-5.7979603-5.7980232z" fill="#b0b1b5"/><path d="m78.8654633 20.6591873h-30.1546326-23.7807751c3.202116 0 5.7979603 2.5959072 5.7979603 5.7980232v18.3136597 13.3704948 31.857811h53.9346962v-63.542736c0-3.2018585-2.59552-5.7972527-5.7972488-5.7972527z" fill="#e6e7e8"/><path d="m35.555798 25.423277h44.496536v16.94726h-44.496536z" fill="#32796b"/><g fill="#dad7dc"><path d="m35.555798 45.63583h44.496536v1.060153h-44.496536z"/><path d="m35.555798 49.961273h44.496536v1.060153h-44.496536z"/><path d="m35.555798 54.286717h44.496536v1.060153h-44.496536z"/><path d="m35.555798 58.61216h44.496536v1.060153h-44.496536z"/><path d="m35.555798 62.937607h44.496536v1.060153h-44.496536z"/><path d="m35.555798 67.263046h44.496536v1.060153h-44.496536z"/><path d="m35.555798 71.588493h44.496536v1.060153h-44.496536z"/><path d="m35.555798 75.91394h44.496536v1.060153h-44.496536z"/><path d="m35.555798 80.23938h44.496536v1.060153h-44.496536z"/><path d="m35.555798 84.564827h44.496536v1.060153h-44.496536z"/></g><path d="m70.583496 74.038895h5.730656v4.115945h-5.730656z" fill="#344e5c" transform="matrix(.707 -.707 .707 .707 -32.296 74.224)"/><path d="m90.5839081 86.6760406-12.0699768-9.5662918-4.0522003 4.0522003 9.5662842 12.0699844c1.732872 2.1864014 4.9843521 2.3739014 6.9570541.4011993l.0000381-.0000381c1.972702-1.9727019 1.785202-5.224182-.4011993-6.9570541z" fill="#344e5c"/><path d="m79.408699 76.8044662-5.2522736 5.2522812c-.4323502.4323502-1.1333313.4323502-1.5656815 0l-.3128586-.3128586c-.4323502-.4323502-.4323502-1.1333237 0-1.5656738l5.2522812-5.2522812c.4323502-.4323502 1.1333313-.4323502 1.5656738 0l.3128586.3128586c.4323503.4323502.4323503 1.1333237.0000001 1.5656738z" fill="#db584d"/><circle cx="62.714" cy="65.362" fill="#db584d" r="15.064"/><circle cx="62.714" cy="65.362" fill="#e6e7e8" r="11.489"/><circle cx="62.714" cy="65.362" fill="#d6b251" r="10.239"/><path d="m60.5500641 70.8182068c-.3126717 0-.6253395-.119339-.8640213-.358017l-2.932579-2.9325867c-.4773598-.477356-.4773598-1.250679 0-1.7280426.4773598-.477356 1.2506828-.477356 1.7280426 0l2.0685577 2.0685654 6.3958282-6.3958282c.477356-.4773598 1.250679-.4773598 1.7280426 0 .477356.4773598.477356 1.2506828 0 1.7280426l-7.2598495 7.2598495c-.238678.238678-.5513497.358017-.8640213.358017z" fill="#e6e7e8"/></svg>