<?xml version="1.0" encoding="iso-8859-1"?>
<!-- Generator: Adobe Illustrator 19.0.0, SVG Export Plug-In . SVG Version: 6.00 Build 0)  -->
<svg version="1.1" id="Capa_1" xmlns="http://www.w3.org/2000/svg" xmlns:xlink="http://www.w3.org/1999/xlink" x="0px" y="0px"
	 viewBox="0 0 512.001 512.001" style="enable-background:new 0 0 512.001 512.001;" xml:space="preserve">
<g>
	<g>
		<path style="fill:#646464;" d="M408,392.001c-57.344,0-104-39.477-104-88c0-4.422,3.578-8,8-8h192c4.422,0,8,3.578,8,8
			C512,352.524,465.344,392.001,408,392.001z M320.539,312.001c4.883,35.953,42.242,64,87.461,64s82.578-28.047,87.461-64H320.539z"
			/>
	</g>
	<g>
		<g>
			<path style="fill:#5C546A;" d="M7.993,312.001c-1.172,0-2.359-0.258-3.484-0.805c-3.977-1.93-5.633-6.715-3.703-10.691
				l89.383-184c1.922-3.969,6.719-5.625,10.688-3.699c3.977,1.93,5.633,6.715,3.703,10.691l-89.383,184
				C13.813,310.344,10.962,312.001,7.993,312.001z"/>
		</g>
	</g>
	<g>
		<g>
			<path style="fill:#5C546A;" d="M200.009,312.001c-2.969,0-5.82-1.656-7.203-4.504l-89.383-184
				c-1.93-3.977-0.273-8.762,3.703-10.691c3.977-1.922,8.766-0.27,10.688,3.699l89.383,184c1.93,3.977,0.273,8.762-3.703,10.691
				C202.368,311.743,201.18,312.001,200.009,312.001z"/>
		</g>
	</g>
	<g>
		<g>
			<path style="fill:#5C546A;" d="M311.993,312.001c-1.172,0-2.359-0.258-3.484-0.805c-3.977-1.93-5.633-6.715-3.703-10.691
				l89.383-184c1.93-3.969,6.711-5.625,10.688-3.699c3.977,1.93,5.633,6.715,3.703,10.691l-89.383,184
				C317.813,310.344,314.962,312.001,311.993,312.001z"/>
		</g>
	</g>
	<g>
		<g>
			<path style="fill:#5C546A;" d="M504.009,312.001c-2.969,0-5.82-1.656-7.203-4.504l-89.383-184
				c-1.93-3.977-0.273-8.762,3.703-10.691c3.984-1.922,8.758-0.27,10.688,3.699l89.383,184c1.93,3.977,0.273,8.762-3.703,10.691
				C506.368,311.743,505.18,312.001,504.009,312.001z"/>
		</g>
	</g>
	<g>
		<g>
			<path style="fill:#DE8229;" d="M87.993,107.727c-1.234,0-2.492-0.285-3.664-0.891c-6.586-3.402-12.602-7.797-17.875-13.066
				L50.344,77.657c-3.125-3.125-3.125-8.188,0-11.313c3.125-3.125,8.188-3.125,11.313,0l16.109,16.109
				c4.102,4.102,8.781,7.52,13.906,10.164c3.922,2.027,5.461,6.852,3.438,10.777C93.688,106.149,90.891,107.727,87.993,107.727z"/>
		</g>
	</g>
	<g>
		<g>
			<path style="fill:#DE8229;" d="M119.993,114.801c-4.266,0-7.813-3.371-7.984-7.672c-0.18-4.414,3.25-8.141,7.664-8.32
				c7.539-0.309,14.828-2.109,21.656-5.348l87.25-41.324c3.984-1.895,8.758-0.188,10.648,3.805
				c1.898,3.992,0.188,8.766-3.805,10.656l-87.242,41.324c-8.781,4.164-18.156,6.477-27.852,6.871
				C120.219,114.798,120.102,114.801,119.993,114.801z"/>
		</g>
	</g>
	<g>
		<g>
			<path style="fill:#DE8229;" d="M424.009,107.727c-2.898,0-5.695-1.578-7.117-4.332c-2.023-3.926-0.484-8.75,3.438-10.777
				c5.125-2.645,9.805-6.063,13.906-10.168l16.109-16.105c3.125-3.125,8.188-3.125,11.313,0c3.125,3.125,3.125,8.188,0,11.313
				l-16.109,16.109c-5.273,5.273-11.289,9.668-17.875,13.07C426.501,107.442,425.243,107.727,424.009,107.727z"/>
		</g>
	</g>
	<g>
		<g>
			<path style="fill:#DE8229;" d="M392.009,114.801c-0.109,0-0.227-0.004-0.336-0.008c-9.695-0.395-19.07-2.707-27.859-6.871
				l-87.234-41.324c-3.992-1.891-5.703-6.664-3.805-10.656s6.68-5.691,10.648-3.805l87.242,41.324
				c6.836,3.238,14.125,5.039,21.664,5.348c4.414,0.18,7.844,3.906,7.664,8.32C399.821,111.43,396.274,114.801,392.009,114.801z"/>
		</g>
	</g>
	<g>
		<polyline style="fill:#5C546A;" points="240.001,432.001 240.001,67.167 272.001,67.167 272.001,432.001 		"/>
	</g>
	<g>
		<path style="fill:#8A8895;" d="M256.001,424.001c-35.289,0-64,28.711-64,64c0,4.418,3.578,8,8,8s8-3.582,8-8h96
			c0,4.418,3.578,8,8,8s8-3.582,8-8C320.001,452.712,291.29,424.001,256.001,424.001z"/>
	</g>
	<g>
		<g>
			<path style="fill:#5C546A;" d="M352.001,496.001h-192c-4.422,0-8-3.582-8-8s3.578-8,8-8h192c4.422,0,8,3.582,8,8
				S356.423,496.001,352.001,496.001z"/>
		</g>
	</g>
	<g>
		<g>
			<path style="fill:#FFD100;" d="M200.001,296.001h-192c-4.422,0-8,3.582-8,8c0,48.523,46.656,88,104,88s104-39.477,104-88
				C208.001,299.583,204.423,296.001,200.001,296.001z"/>
		</g>
		<g>
			<path style="fill:#FF9500;" d="M8.001,296.001c-4.422,0-8,3.582-8,8c0,48.523,46.656,88,104,88v-96H8.001z"/>
		</g>
	</g>
	<g>
		<g>
			<path style="fill:#FFD100;" d="M504.001,296.001h-192c-4.422,0-8,3.582-8,8c0,48.523,46.656,88,104,88s104-39.477,104-88
				C512.001,299.583,508.423,296.001,504.001,296.001z"/>
		</g>
		<g>
			<path style="fill:#FF9500;" d="M312.001,296.001c-4.422,0-8,3.582-8,8c0,48.523,46.656,88,104,88v-96H312.001z"/>
		</g>
	</g>
	<g>
		<circle style="fill:#8A8895;" cx="104.001" cy="104.001" r="24"/>
	</g>
	<g>
		<circle style="fill:#8A8895;" cx="408.001" cy="104.001" r="24"/>
	</g>
	<g>
		<circle style="fill:#8A8895;" cx="256.001" cy="48.001" r="32"/>
	</g>
	<g>
		<circle style="fill:#5C546A;" cx="256.001" cy="48.001" r="16"/>
	</g>
</g>
<g>
</g>
<g>
</g>
<g>
</g>
<g>
</g>
<g>
</g>
<g>
</g>
<g>
</g>
<g>
</g>
<g>
</g>
<g>
</g>
<g>
</g>
<g>
</g>
<g>
</g>
<g>
</g>
<g>
</g>
</svg>
