<svg height="511pt" viewBox="0 0 511 511.99973" width="511pt" xmlns="http://www.w3.org/2000/svg"><path d="m391.492188 135.007812v60c0 8.398438-6.597657 15-15 15-8.402344 0-15-6.601562-15-15v-60c0-8.402343 6.597656-15 15-15 8.402343 0 15 6.597657 15 15zm0 0" fill="#7c8388"/><path d="m391.492188 316.003906v60c0 8.398438-6.597657 15-15 15-8.402344 0-15-6.601562-15-15v-60c0-8.402344 6.597656-15 15-15 8.402343 0 15 6.601563 15 15zm0 0" fill="#7c8388"/><path d="m376.492188 210.007812v-90c8.402343 0 15 6.597657 15 15v60c0 8.398438-6.597657 15-15 15zm0 0" fill="#575f64"/><path d="m376.492188 391.003906v-90c8.402343 0 15 6.597656 15 15v60c0 8.398438-6.597657 15-15 15zm0 0" fill="#575f64"/><path d="m467.488281 361.003906h-181.996093c-24.898438 0-44.996094 20.097656-44.996094 45v60.996094c0 24.898438 20.097656 45 44.996094 45h181.996093c24.902344 0 45-20.101562 45-45v-60.996094c0-24.902344-20.097656-45-45-45zm0 0" fill="#ffda2d"/><path d="m512.488281 406.003906v60.996094c0 24.898438-20.097656 45-45 45h-90.996093v-150.996094h90.996093c24.902344 0 45 20.097656 45 45zm0 0" fill="#fdbf00"/><path d="m467.488281 180.007812h-181.996093c-24.898438 0-44.996094 20.097657-44.996094 45v59.996094c0 24.898438 20.097656 46 44.996094 46h181.996093c24.902344 0 45-21.101562 45-46v-59.996094c0-24.902343-20.097656-45-45-45zm0 0" fill="#ffda2d"/><path d="m512.488281 225.007812v59.996094c0 24.898438-20.097656 46-45 46h-90.996093v-150.996094h90.996093c24.902344 0 45 20.097657 45 45zm0 0" fill="#fdbf00"/><path d="m467.488281.0117188h-181.996093c-24.898438 0-44.996094 20.0976562-44.996094 45.0000002v59.996093c0 24.898438 20.097656 45 44.996094 45h181.996093c24.902344 0 45-20.101562 45-45v-59.996093c0-24.902344-20.097656-45.0000002-45-45.0000002zm0 0" fill="#ffda2d"/><path d="m512.488281 45.011719v59.996093c0 24.898438-20.097656 45-45 45h-90.996093v-149.9960932h90.996093c24.902344 0 45 20.0976562 45 45.0000002zm0 0" fill="#fdbf00"/><g fill="#00c8c8"><path d="m75.5 451c-41.355469 0-75-33.644531-75-74.996094 0-8.292968 6.707031-15 15-15 8.289062 0 15 6.707032 15 15 0 24.8125 20.183594 44.996094 45 44.996094 8.289062 0 14.996094 6.710938 14.996094 15 0 8.292969-6.707032 15-14.996094 15zm0 0"/><path d="m15.5 331.003906c-8.292969 0-15-6.710937-15-15v-61c0-8.289062 6.707031-15 15-15 8.289062 0 15 6.710938 15 15v61c0 8.289063-6.710938 15-15 15zm0 0"/><path d="m203.816406 62.53125-90-60c-6.941406-4.613281-16.214844-2.738281-20.800781 4.160156-4.597656 6.898438-2.738281 16.199219 4.160156 20.800782l48.777344 32.519531h-70.453125c-41.355469 0-75 33.644531-75 74.996093v60c0 8.289063 6.707031 15 15 15 8.289062 0 15-6.710937 15-15v-60c0-24.8125 20.183594-44.996093 45-44.996093h70.457031l-48.777343 32.515625c-6.902344 4.601562-8.761719 13.902344-4.160157 20.800781 4.519531 6.796875 13.78125 8.8125 20.800781 4.160156l89.996094-59.996093c4.175782-2.785157 6.679688-7.472657 6.679688-12.480469 0-5.007813-2.503906-9.699219-6.679688-12.480469zm0 0"/><path d="m195.496094 451h-60c-8.289063 0-15-6.707031-15-15 0-8.289062 6.710937-15 15-15h60c8.289062 0 15 6.710938 15 15 0 8.292969-6.710938 15-15 15zm0 0"/></g><path d="m452.488281 75.007812c0 8.402344-6.597656 15-14.996093 15h-122c-8.398438 0-15-6.597656-15-15 0-8.398437 6.601562-15 15-15h122c8.398437 0 14.996093 6.601563 14.996093 15zm0 0" fill="#fdbf00"/><path d="m452.488281 255.003906c0 8.398438-6.597656 15-14.996093 15h-122c-8.398438 0-15-6.601562-15-15 0-8.398437 6.601562-15 15-15h122c8.398437 0 14.996093 6.601563 14.996093 15zm0 0" fill="#fdbf00"/><path d="m452.488281 436c0 8.398438-6.597656 15-14.996093 15h-122c-8.398438 0-15-6.601562-15-15s6.601562-15 15-15h122c8.398437 0 14.996093 6.601562 14.996093 15zm0 0" fill="#fdbf00"/><path d="m452.488281 436c0 8.398438-6.597656 15-14.996093 15h-61v-30h61c8.398437 0 14.996093 6.601562 14.996093 15zm0 0" fill="#ff9100"/><path d="m452.488281 255.003906c0 8.398438-6.597656 15-14.996093 15h-61v-30h61c8.398437 0 14.996093 6.601563 14.996093 15zm0 0" fill="#ff9100"/><path d="m437.492188 90.007812h-61v-30h61c8.398437 0 14.996093 6.601563 14.996093 15 0 8.402344-6.597656 15-14.996093 15zm0 0" fill="#ff9100"/></svg>