<?xml version="1.0" encoding="utf-8"?>
<!-- Generator: Adobe Illustrator 22.0.0, SVG Export Plug-In . SVG Version: 6.00 Build 0)  -->
<svg version="1.1" id="Layer_1" xmlns="http://www.w3.org/2000/svg" xmlns:xlink="http://www.w3.org/1999/xlink" x="0px" y="0px"
	 viewBox="0 0 512 512" style="enable-background:new 0 0 512 512;" xml:space="preserve">
<style type="text/css">
	.st0{fill:#C09025;}
	.st1{fill:#EBCC51;}
	.st2{fill:#9A9595;}
	.st3{fill:#968D8E;}
	.st4{fill:#CBCACB;}
	.st5{fill:#6F6D6D;}
	.st6{fill:#A09A99;}
	.st7{fill:#70A83B;}
	.st8{fill:#009045;}
	.st9{fill:#99BD7E;}
	.st10{fill:#130F14;}
	.st11{fill:#606060;}
	.st12{fill:#A88950;}
	.st13{fill:#C5AB83;}
	.st14{opacity:0.56;fill:#99BD7E;}
	.st15{fill:#B2C756;}
	.st16{fill:#88982F;}
	.st17{fill:#E7B94C;}
	.st18{fill:none;}
</style>
<g>
	<ellipse class="st0" cx="169.9" cy="255.5" rx="5.5" ry="9"/>
	<ellipse class="st1" cx="169.1" cy="255.5" rx="4.8" ry="7.8"/>
	<path class="st2" d="M162.7,386.6c0,0-35.1,31.2-40.8,36c5.3,13.4,20.4,19.3,20.4,19.3l40-38L162.7,386.6z"/>
	<path class="st3" d="M140.1,440.9c1,0.5,1.8,0.8,1.8,0.8l39.6-37.8l-1.7-1.5L140.1,440.9z"/>
	<path class="st4" d="M140.5,441.1c0.3,0.1,0.5,0.2,0.5,0.2l40-38l-0.4-0.3L140.5,441.1z"/>
	<path class="st5" d="M176,399.1l-40.3,39.2c2.8,1.6,4.6,2.5,4.6,2.5l40-38L176,399.1z"/>
	<path class="st3" d="M135.1,438c1,0.5,1.5,0.9,1.5,0.9l40.9-39l-1.7-1.5L135.1,438z"/>
	<path class="st6" d="M139.2,440.4c1,0.5,0.5,0.3,0.5,0.3l40.3-38.6l-0.8-0.6L139.2,440.4z"/>
	<path class="st7" d="M155.7,271.9c-1.9,2.3-26.8,28.1-26.8,31.2s38.6,26.6,43.5,26.6s38.2-34.2,38.2-37.5
		C210.5,292,157.6,269.6,155.7,271.9z"/>
	<path class="st8" d="M136.2,304.2c0-2.7,19.6-23.4,25.3-29.6c-1.2-0.2-1.9-0.3-2.1,0c-1.9,2.3-26.8,28.1-26.8,31.2
		s38.6,26.6,43.5,26.6c0.6,0,1.7-0.6,3.2-1.6C173.2,329.7,136.2,307.2,136.2,304.2z"/>
	<path class="st9" d="M184.4,324.5c-4.8,0-43.5-23.5-43.5-26.6c0-0.2,0.1-0.5,0.3-0.9c2.1-2.7,3.3-4.4,4.1-5.5
		c-0.7-0.1-1.1-0.1-1.3,0.1c-1.5,1.8,0.1,0.9-6.4,9.2c-0.2,0.4-0.3,0.7-0.3,0.9c0,3.1,38.6,26.6,43.5,26.6c2.7,0,10-7.4,14.5-12.3
		C191.2,320.2,186.5,324.5,184.4,324.5z"/>
	<path class="st10" d="M297.4,99.8l30.3,25c0,0,40.4-12.7,55.7,26.3c15.4,39.1-21.1,60.6-21.1,60.6H152.1c0,0-41.7,8.8-44.3,40.8
		c-2.6,32,7.5,39.5,7.5,39.5l37.3-21.5c0,0-5.9-6-1.2-20.5c14.8-21.2,40.7-12.4,40.7-12.4l191.4-4c0,0,62.8-38.2,35.1-100.1
		C390.9,71.7,297.4,99.8,297.4,99.8z"/>
	<g>
		<path class="st11" d="M339.3,123.3l-28.5-23.5c0,0,18.6-5.6,41.6-6.3c-27.1-0.9-50.9,6.3-50.9,6.3l30.3,25
			C331.8,124.8,334.7,123.9,339.3,123.3z"/>
		<path class="st11" d="M366.5,211.7h9.3c0,0,36.4-21.5,21.1-60.6c-10.5-26.7-32.6-29.2-45.6-28.1c12.6,1.1,28.1,7.1,36.3,28.1
			C402.9,190.2,366.5,211.7,366.5,211.7z"/>
		<path class="st11" d="M188.4,236.1c4.7,0.5,7.8,1.5,7.8,1.5l8.7-0.2C202.9,236.9,196.3,235.2,188.4,236.1z"/>
		<path class="st11" d="M121.2,252.5c2.6-32,44.3-40.8,44.3-40.8h-9.3c0,0-41.7,8.8-44.3,40.8s7.5,39.5,7.5,39.5l6.4-3.7
			C123,283.5,119.5,273,121.2,252.5z"/>
	</g>
	<path class="st12" d="M112.2,294.5c-3.5-5,34.2-32.4,38.8-34c6.4,3.5,9.7,9.3,12.7,14.6c-3.3,6.6-27.9,29.8-35.9,33.5
		C121.6,306.5,115.7,299.5,112.2,294.5z"/>
	<path class="st13" d="M131.4,303.4c-5.5-1.8-10.9-8.1-14-12.7c-0.9-1.3,1.1-4,4.5-7.4c-5.1,4.6-8.5,8.6-7.4,10.2
		c3.2,4.5,8.5,10.9,14,12.7C132.7,304.2,135,301.7,131.4,303.4z"/>
	<path class="st7" d="M207.6,290.3c-15.4,12.9-49.2,58.6-50.7,63.6c-1.5,5,18.7,40.2,36,38.6c30.9-3.7,95.7-56.4,92.8-66.7
		C282.9,315.5,247.8,281.1,207.6,290.3z"/>
	<path class="st8" d="M159.3,354.6c1.5-5,35.3-50.7,50.7-63.6c15-3.4,29.2-0.8,41.4,4.4c-12.6-5.8-27.7-9-43.7-5.4
		c-15.4,12.9-49.2,58.6-50.7,63.6c-1.3,4.4,13.9,31.8,29.3,37.6C171.7,383.7,158,358.8,159.3,354.6z"/>
	<path class="st7" d="M186,355.5c-18,6.6-39.9,19.8-39.9,23.3s25,35.8,39.9,36.2c10.3-10.1,23.1-34.2,26.6-41.5
		C213.1,364.5,204,348.9,186,355.5z"/>
	<path class="st8" d="M200.9,354.6c7,3.8,10.4,11.9,10.1,17.5c-3.4,7.2-16.2,31.4-26.6,41.5c-1.9-0.1-3.9-0.6-6-1.5
		c2.6,1.3,5.1,2.1,7.3,2.2c10.3-10.1,23.1-34.2,26.6-41.5C212.7,366.8,208.8,358,200.9,354.6z"/>
	<path class="st8" d="M151.5,378.7c0-3.5,21.9-16.7,39.9-23.3c1.9-0.7,3.8-1.1,5.5-1.4c-3.2-0.5-6.8-0.1-10.9,1.4
		c-18,6.6-39.9,19.8-39.9,23.3c0,3.5,25,35.8,39.9,36.2c0.3-0.3,0.6-0.6,0.9-0.9C172,408.6,151.5,381.9,151.5,378.7z"/>
	<path class="st0" d="M366,214.6c3.4,1,6.7,2.3,9.9,3.9c3.2,1.5,6.3,3.3,9.2,5.3c2.9,2,5.8,4.2,8.4,6.6c2.6,2.5,4.9,5.2,6.7,8.2
		c-2.5-2.5-5.1-4.9-7.8-7.1c-2.7-2.1-5.5-4.2-8.4-6.1C378.2,221.5,372.2,218,366,214.6z"/>
	<path class="st14" d="M210,294c-6.9,2.2-17.6,18.1-20.5,22.8c54.9-19.2,86.5,17.9,89.5,15.7C277.9,323.6,269.7,297.4,210,294z"/>
	<path class="st14" d="M204.6,360.3c2.6,0,4.1,5.1,5.2,6.9c1,1.8-24.6,43.1-27.5,42.5s-15.1-10.2-15.1-13.4
		C167.2,393.1,202,360.3,204.6,360.3z"/>
	<path class="st15" d="M115,72.4c-3.4,5.5-6.5,11.1-9.4,16.8c-2.9,5.7-5.5,11.6-7.9,17.5c-4.7,11.9-8.2,24.3-9.3,36.8
		c-0.6,6.2-0.5,12.5,0.5,18.6c1.1,6,2.8,12.1,5.4,17.5c2.6,5.4,6.2,10.2,10.8,13.7c4.6,3.5,10.2,5.6,16.1,6.7
		c5.9,1.1,12.1,1.2,18.4,1.1c3.2,0,6.4-0.1,9.8-0.1c3.3,0,6.6,0.2,9.9,0.4c6.6,0.5,13.1,1.2,19.6,2.2c6.5,1,12.9,2.2,19.3,3.8
		c12.8,3.1,25.4,7.2,37.4,12.9c12,5.6,23.5,12.9,33.3,22.2c9.8,9.2,18,20.6,23,33.3c2.5,6.2,4.4,12.5,6.2,18.8
		c1.8,6.3,3.3,12.6,4.7,19c1.4,6.4,2.7,12.7,3.8,19.1c1.1,6.4,2.1,12.8,2.9,19.3c0.4,3.2,0.8,6.5,1.2,9.7l1,9.6
		c0.7,6.3,1.6,12.6,2.8,18.8c2.4,12.4,6.2,24.5,12.2,35.6c3,5.5,6.5,10.7,10.6,15.5c4,4.8,8.6,9.3,13.4,13.4c4.9,4.1,9.9,8,15.5,11
		c2.8,1.5,5.7,2.8,8.6,3.9c3,1,6,1.9,9.1,2.4c12.4,2.1,25.8-0.6,36.5-7.9c-2.5,2-5.3,3.7-8.2,5.1c-2.9,1.4-6,2.6-9.1,3.4
		c-6.3,1.7-12.9,2.2-19.5,1.4c-3.3-0.4-6.5-1.1-9.6-2.1c-3.1-1-6.2-2.2-9.2-3.7c-5.9-2.9-11.3-6.7-16.5-10.7
		c-10.3-7.9-19.6-17.7-26.3-29.2c-6.8-11.4-11.1-24-14.1-36.8c-1.5-6.4-2.5-12.9-3.4-19.4l-1.2-9.6c-0.4-3.2-0.9-6.3-1.4-9.5
		c-2-12.6-4.5-25.2-7.5-37.6c-1.5-6.2-3.1-12.4-4.9-18.4c-1.8-6.1-3.8-12.1-6.2-17.8c-2.4-5.6-5.3-11-8.8-15.9
		c-3.5-5-7.6-9.6-12.1-13.7c-9-8.4-19.6-15-30.9-20.4c-11.3-5.4-23.2-9.4-35.5-12.5c-12.2-3-24.7-5.3-37.3-6.4
		c-3.1-0.3-6.3-0.5-9.4-0.6c-3-0.1-6.3,0-9.6-0.1c-6.5-0.1-13.3-0.4-20-1.8c-6.7-1.4-13.5-4.2-19-8.7c-5.6-4.4-9.7-10.4-12.5-16.7
		c-1.4-3.1-2.5-6.4-3.3-9.6c-0.8-3.3-1.5-6.5-1.9-9.9c-0.8-6.7-0.6-13.4,0.3-20c0.9-6.6,2.5-13,4.5-19.2c2-6.2,4.4-12.3,7.2-18.2
		C100.5,93.8,107.2,82.6,115,72.4z"/>
	<path class="st15" d="M313.7,457.6c-10.5,10.2-28.3,8.9-28.3,8.9s-0.7-17.8,9.8-28s28.3-8.9,28.3-8.9S324.2,447.4,313.7,457.6z"/>
	<path class="st16" d="M285.8,466.5c0.7-5.9,3.2-19.4,11.7-27.5c7.9-7.6,19.7-9.1,25.8-9.3c-2.7-0.1-18.3-0.4-27.9,8.9
		c-10.5,10.2-9.8,28-9.8,28S285.6,466.4,285.8,466.5z"/>
	<path class="st16" d="M322.9,430c-1.5,3.3-3.4,6.4-5.4,9.3c-2,3-4.2,5.8-6.6,8.5c-2.4,2.7-5,5.3-7.8,7.5c-1.4,1.1-2.9,2.1-4.6,3
		c-1.6,0.8-3.3,1.6-5.2,1.8c3.2-1.7,5.7-4.1,8.2-6.6c2.5-2.5,4.8-5.1,7.2-7.7l7-8C318.1,435.2,320.4,432.6,322.9,430z"/>
	<path class="st15" d="M444.1,453.2c-14.6-0.6-27.1,12.1-27.1,12.1s11.3,13.8,25.9,14.5s27.1-12.1,27.1-12.1
		S458.7,453.8,444.1,453.2z"/>
	<path class="st16" d="M417.3,465c4.4,4,15.2,12.4,27,12.9c11,0.5,20.8-6.2,25.5-10.1c-1.9,1.9-13.5,12.4-26.8,11.9
		c-14.6-0.6-25.9-14.5-25.9-14.5S417.2,465.1,417.3,465z"/>
	<path class="st16" d="M459.2,468c-3.6-0.3-7.1-0.7-10.6-1.2l-10.5-1.3c-3.5-0.4-7-0.8-10.5-1c-3.5-0.2-7-0.3-10.5,0.5
		c1.5-1,3.3-1.6,5-2.1c1.8-0.4,3.6-0.7,5.4-0.8c3.6-0.3,7.3,0,10.8,0.4c3.6,0.4,7.1,1.1,10.6,2C452.5,465.4,455.9,466.5,459.2,468z"
		/>
	<path class="st15" d="M378.9,485.3c-2,7-9.9,11-9.9,11s-4.8-7.5-2.9-14.5s9.9-11,9.9-11S380.9,478.3,378.9,485.3z"/>
	<path class="st16" d="M369.2,496.2c-1.2-2.7-3.5-9.1-2-14.8c1.5-5.3,6.2-8.9,8.7-10.6c-1.2,0.6-8,4.5-9.8,10.9
		c-2,7,2.9,14.5,2.9,14.5S369.1,496.3,369.2,496.2z"/>
	<path class="st16" d="M375.9,471.1c0.5,1.8,0.6,3.6,0.6,5.4c0,1.8-0.2,3.6-0.5,5.4c-0.3,1.8-0.9,3.6-1.7,5.2
		c-0.8,1.7-1.9,3.4-3.5,4.3c0.7-1.7,1-3.4,1.3-5.1l1-5.1c0.3-1.7,0.7-3.4,1.1-5.1C374.7,474.6,375.2,472.9,375.9,471.1z"/>
	<path class="st15" d="M323.4,330.9c12.9-6.8,29.6-0.6,29.6-0.6s-4.3,17.3-17.2,24.1c-12.9,6.8-29.6,0.6-29.6,0.6
		S310.5,337.7,323.4,330.9z"/>
	<path class="st16" d="M352.6,330.2c-2.3,5.5-8.5,17.6-18.9,23.1c-9.7,5.1-21.4,3.2-27.3,1.7c2.6,0.9,17.4,5.5,29.2-0.7
		c12.9-6.8,17.2-24.1,17.2-24.1S352.7,330.3,352.6,330.2z"/>
	<path class="st16" d="M306.8,354.8c2.3-2.7,5-5.2,7.7-7.4c2.7-2.3,5.6-4.4,8.7-6.3c3-1.9,6.2-3.6,9.6-5c1.7-0.7,3.4-1.2,5.2-1.6
		c1.8-0.3,3.6-0.6,5.4-0.3c-3.5,0.8-6.6,2.4-9.7,4c-3,1.7-6,3.5-9,5.4l-8.9,5.7C313,351.1,310,353,306.8,354.8z"/>
	<path class="st15" d="M141.4,63.4c-10.6,20.8-38.2,28-38.2,28s-10.3-26.6,0.3-47.4s38.2-28,38.2-28S152,42.6,141.4,63.4z"/>
	<path class="st16" d="M103.9,91.3c-2-9.3-5.2-30.9,3.4-47.6c8-15.6,25.1-24,34.2-27.5c-4.1,1.2-27.9,8.9-37.6,27.9
		c-10.6,20.8-0.3,47.4-0.3,47.4S103.6,91.3,103.9,91.3z"/>
	<path class="st16" d="M133,30.6c-0.9,5.6-2.3,11.2-3.9,16.7c-1.6,5.5-3.5,10.9-5.7,16.2c-2.2,5.3-4.7,10.5-7.8,15.3
		c-1.5,2.4-3.2,4.8-5.1,7c-1.9,2.2-4,4.2-6.5,5.6c2.1-2,3.8-4.2,5.3-6.5c1.6-2.3,2.9-4.8,4.2-7.3c1.3-2.5,2.5-5,3.7-7.6
		c1.2-2.6,2.3-5.1,3.4-7.8c1.1-2.6,2.2-5.2,3.2-7.8c1.1-2.6,2-5.3,3.1-7.9C128.9,41.2,130.9,35.9,133,30.6z"/>
	<path class="st15" d="M70.5,134.5c11.7,7.2,14.5,23.7,14.5,23.7s-16,4.7-27.7-2.5S42.8,132,42.8,132S58.8,127.2,70.5,134.5z"/>
	<path class="st16" d="M85,157.7c-5.5,0.7-18.3,1.5-27.7-4.3c-8.8-5.4-12.8-15.8-14.4-21.3c0.5,2.5,3.8,16.7,14.5,23.3
		C69,162.7,85,158,85,158S85,157.9,85,157.7z"/>
	<path class="st16" d="M50.6,137.4c3.3,0.6,6.6,1.5,9.7,2.7c3.2,1.1,6.3,2.5,9.3,4c3,1.6,5.9,3.3,8.6,5.4c1.3,1.1,2.6,2.2,3.8,3.5
		c1.1,1.3,2.2,2.7,2.8,4.3c-2.3-2.5-5.1-4.2-7.9-5.9c-2.8-1.7-5.7-3.2-8.6-4.7l-8.8-4.5C56.5,140.6,53.5,139.1,50.6,137.4z"/>
	<path class="st15" d="M121.7,179.2c-4,11.3-17.5,16.9-17.5,16.9s-7.1-12.8-3.1-24.1c4-11.3,17.5-16.9,17.5-16.9
		S125.7,167.8,121.7,179.2z"/>
	<path class="st16" d="M104.6,195.9c-1.7-4.6-4.8-15.4-1.6-24.5c3-8.5,11.1-13.9,15.5-16.3c-2,0.9-13.6,6.4-17.2,16.8
		c-4,11.3,3.1,24.1,3.1,24.1S104.4,196,104.6,195.9z"/>
	<path class="st16" d="M114.6,162.7c0.2,3,0,5.9-0.3,8.9c-0.3,2.9-0.9,5.8-1.7,8.7c-0.8,2.9-1.8,5.7-3.1,8.4c-0.4,0.7-0.7,1.3-1.1,2
		l-1.2,1.9c-0.5,0.6-1,1.2-1.5,1.7c-0.5,0.5-1.2,1-1.8,1.4c1.6-2.5,2.5-5.2,3.4-7.9c0.8-2.7,1.6-5.5,2.4-8.3
		c0.7-2.8,1.5-5.6,2.3-8.4C112.8,168.3,113.6,165.5,114.6,162.7z"/>
	<path class="st1" d="M136.9,219.6c0,0-13.7,5-16.7,11c-3,5.9,8.3,12.5,8.3,12.5s104,28.1,152.5,47.8c27,9.4,127.7-22.8,130.1-33.4
		c4.5-28.1-40.8-55.8-40.8-55.8L136.9,219.6z"/>
	<path class="st1" d="M372.4,221.4c0,0,7-139.1-126-139.1S133.2,232.4,133.2,232.4s62.1,25.5,133.3,14.5S372.4,221.4,372.4,221.4z"
		/>
	<path class="st17" d="M207.5,237.1c-71.2-11-74.3-15.7-74.3-15.7s-4.8-94.3,67.8-127.6c0,0-67.8,72.2-20.2,111.5
		c14.1,29.1,181.6,6.4,181.6,6.4S279.6,242.7,207.5,237.1z"/>
	<path class="st0" d="M372.9,206.6c0,0-34.7,14.5-105.9,25.5c-71.2,11-133.3-14.5-133.3-14.5s-0.9-6.9-1-17.8
		c-0.1,13.4,1,22.3,1,22.3s62.1,25.5,133.3,14.5c71.2-11,105.9-25.5,105.9-25.5s0.1-2.1,0-5.9C372.9,206.1,372.9,206.6,372.9,206.6z
		"/>
	<path class="st0" d="M189.5,94.8c0,0,9.5-12.5,33.2-12.5s47,39.7,47,39.7s-23.8-32-47.4-33.1S189.5,94.8,189.5,94.8z"/>
	<path class="st17" d="M201.2,86.5c27.2-15.4,47.5-12.9,62.9-9.2c15.4,3.7,21.2,5.7,29.7,10.2s28.7,29,28.7,29l-52.9,5.5
		C269.7,122,234.6,71.9,201.2,86.5z"/>
	<path class="st0" d="M269.7,122c0,0-30.1-42.9-61-37.7c-2.4,1.1-4.9,2.4-7.4,3.8c33.3-14.5,68.4,35.5,68.4,35.5l52.9-5.5
		c0,0-0.5-0.6-1.3-1.5L269.7,122z"/>
	<path class="st0" d="M279.6,108.4c0,0-26.4-26.7-39.5-29.2s-23.2,0-23.2,0s11.1-4.4,25.4-2.9C256.5,77.9,279.6,108.4,279.6,108.4z"
		/>
	<path class="st0" d="M299.7,103.8c0,0-9.4-16-29.2-22.5c-13.2-4.4-22.3-6.6-22.3-6.6s8.9,0.3,24.5,4.4S299.7,103.8,299.7,103.8z"/>
	<path class="st18" d="M216.9,79.2"/>
	<path class="st17" d="M129.2,201.8c1.8-2.8,4.4-1.1,4.4-1.1l1.6,32.4h-4.9C130.3,233.2,127.5,204.7,129.2,201.8z"/>
	<path class="st0" d="M133.7,200.8c0,0-1.2-0.8-2.4-0.5c0.7,0.1,1.2,0.5,1.2,0.5l1.6,32.4h1.3L133.7,200.8z"/>
	<path class="st0" d="M159.4,231c1,1.2-1,12.7-1,12.7l-25.8-6.7c0,0,0.1-7.1,1.2-9s5-2.7,7-2.2S158.3,229.7,159.4,231z"/>
	<path class="st0" d="M368.2,205.3c4.6,2.2,9,5,13.2,7.9c2.1,1.5,4.1,3.1,6.1,4.7c2,1.7,3.9,3.4,5.8,5.2c1.8,1.8,3.6,3.7,5.3,5.7
		c1.6,2,3.2,4.1,4.6,6.3c1.4,2.2,2.6,4.5,3.6,6.9c0.9,2.4,1.6,5,1.8,7.6c-1.6-4.9-4.2-9.2-7.3-13.2c-3.1-4-6.5-7.6-10.1-11.2
		c-3.6-3.5-7.4-6.9-11.2-10.2C376.1,211.8,372.2,208.6,368.2,205.3z"/>
	<path class="st1" d="M134.1,227.7c-1.4,0.7-1.6,9.2-1.6,9.2s17.1,2,18.3,1.9c1.2-0.2,0.5-6.8,0.5-6.8S135.5,227,134.1,227.7z"/>
	<path class="st17" d="M139.4,225.7c0,0-4.5,0.2-5.3,1.7c-0.8,1.5,17.9,6.4,20.9,6.4s4.4-2.8,4.4-2.8L139.4,225.7z"/>
	<path class="st0" d="M127.5,225.7c-1.1,0.8-2.1,1.7-2.9,2.7c-0.9,1-1.7,2.1-1.8,3.3c0,0.1,0,0.3,0,0.4c0,0,0.1,0.1,0.3,0.2
		c0.3,0.2,0.5,0.3,0.8,0.5c0.6,0.3,1.2,0.6,1.8,0.8c1.2,0.5,2.4,1,3.7,1.5c4.9,1.9,9.9,3.7,14.9,5.5c10,3.6,20,7.1,30,10.5
		l60.2,20.8l30.1,10.4l15.1,5.1c2.5,0.8,5.1,1.8,7.5,2.2c2.5,0.5,5.1,0.7,7.7,0.7c5.2,0.1,10.5-0.4,15.7-1
		c5.2-0.7,10.5-1.5,15.7-2.5c10.4-1.9,20.7-4.4,31-7c-5,1.7-10.1,3.2-15.3,4.6c-5.1,1.4-10.3,2.7-15.5,3.9c-5.2,1.2-10.4,2.2-15.7,3
		c-5.3,0.8-10.6,1.4-16,1.5c-2.7,0-5.4-0.1-8.2-0.6c-1.4-0.2-2.7-0.6-4-1l-3.8-1.2l-15.2-4.9c-10.1-3.4-20.1-6.8-30.2-10.2
		c-20.1-7-40.1-14-60-21.4c-9.9-3.7-19.9-7.5-29.8-11.3c-4.9-2-9.8-4-14.7-6.1c-1.2-0.5-2.4-1.1-3.6-1.7c-0.6-0.3-1.2-0.6-1.8-0.9
		c-0.3-0.2-0.6-0.3-0.9-0.5c-0.1-0.1-0.1-0.1-0.2-0.2c0,0-0.1-0.1-0.1-0.1c0,0-0.1-0.1-0.1-0.2c0-0.2,0-0.4,0-0.6
		c0.3-1.4,1.2-2.5,2.1-3.4C125.3,227.3,126.4,226.4,127.5,225.7z"/>
	<path class="st0" d="M139.5,226.3c0,0-2.4,0.2-3,1.3c-0.6,1.1,13.2,4.7,15.3,4.7s3.2-1.2,3.2-1.2L139.5,226.3z"/>
	<path class="st17" d="M269.7,279.8c0,0,28.5-5.9,32.1-24.3c70.7-20.9,91-19,105.3-2.6C403,267,304.2,292,291.2,288.4
		S269.7,279.8,269.7,279.8z"/>
	<path class="st17" d="M163.7,234.6c0,0,64.3,19.5,155.1-5.4c8.6,15.8-41.7,26.3-66.6,26.3s-27.8,12-27.8,12l-73.6-28.8L163.7,234.6
		z"/>
	<path class="st0" d="M206.5,249.6c0,0,0.9-18.1,2-36.8c4.4-13,41.6-15.4,46.1-2.2s4.4,39,4.4,39H206.5z"/>
	<path class="st17" d="M206.9,249.6c0,0,0.9-17.2,2-34.8c4.4-12.4,41.3-14.6,45.7-2.1c4.4,12.5,4.4,36.9,4.4,36.9H206.9z"/>
	<path class="st0" d="M208.9,248.7c0,0,0-28.2,1.4-34.3c1.3-6.1,41.4-4.6,42.4,0c1,4.6,3.3,33.8,3.3,33.8L208.9,248.7z"/>
	<path class="st17" d="M311,158.4c0.4,0.1,0.6,0.4,0.9,0.6c0.3,0.2,0.5,0.5,0.7,0.8c0.5,0.5,0.9,1.1,1.4,1.6
		c0.9,1.1,1.7,2.2,2.5,3.4c1.6,2.3,3.1,4.7,4.5,7.1c2.8,4.9,5.2,10,7.1,15.3c2,5.3,3.5,10.7,4.4,16.3c0.9,5.6,1.1,11.4-0.4,16.9
		c-0.6-5.6-1.9-10.8-3.5-16.1c-1.6-5.2-3.4-10.3-5.3-15.4c-1.9-5.1-3.9-10.2-6-15.3l-3.1-7.7c-0.5-1.3-1.1-2.6-1.6-3.8
		c-0.3-0.6-0.5-1.3-0.8-1.9C311.6,159.6,311.4,158.9,311,158.4z"/>
	<path class="st17" d="M333.6,164.5c0.3,0,0.5,0.3,0.7,0.5c0.2,0.2,0.4,0.4,0.6,0.6c0.4,0.4,0.8,0.9,1.1,1.4c0.7,0.9,1.4,1.9,2,2.9
		c1.3,2,2.4,4,3.4,6.1c2,4.2,3.6,8.6,4.8,13c1.2,4.5,2,9.1,2.2,13.8c0.2,4.7-0.1,9.4-1.6,13.9c-0.6-4.6-1.4-9-2.3-13.4
		c-0.9-4.4-2-8.7-3.1-13c-1.1-4.3-2.4-8.6-3.6-12.9l-1.9-6.5c-0.3-1.1-0.7-2.2-1-3.3c-0.2-0.5-0.4-1.1-0.5-1.6
		C334.2,165.5,334,164.9,333.6,164.5z"/>
</g>
</svg>
