<?xml version="1.0" encoding="utf-8"?>
<!-- Generator: Adobe Illustrator 22.0.0, SVG Export Plug-In . SVG Version: 6.00 Build 0)  -->
<svg version="1.1" id="Layer_1" xmlns="http://www.w3.org/2000/svg" xmlns:xlink="http://www.w3.org/1999/xlink" x="0px" y="0px"
	 viewBox="0 0 128 128" style="enable-background:new 0 0 128 128;" xml:space="preserve">
<style type="text/css">
	.st0{fill:#C09025;}
	.st1{fill:#EBCC51;}
	.st2{fill:#9A9595;}
	.st3{fill:#968D8E;}
	.st4{fill:#CBCACB;}
	.st5{fill:#6F6D6D;}
	.st6{fill:#A09A99;}
	.st7{fill:#70A83B;}
	.st8{fill:#009045;}
	.st9{fill:#99BD7E;}
	.st10{fill:#130F14;}
	.st11{fill:#606060;}
	.st12{fill:#A88950;}
	.st13{fill:#C5AB83;}
	.st14{opacity:0.56;fill:#99BD7E;}
	.st15{fill:#B2C756;}
	.st16{fill:#88982F;}
	.st17{fill:#E7B94C;}
	.st18{fill:none;}
</style>
<g>
	<ellipse class="st0" cx="42.5" cy="64" rx="1.4" ry="2.3"/>
	<ellipse class="st1" cx="42.3" cy="64" rx="1.2" ry="2"/>
	<path class="st2" d="M40.7,97.2c0,0-8.9,7.9-10.3,9.1c1.3,3.4,5.2,4.9,5.2,4.9l10.1-9.6L40.7,97.2z"/>
	<path class="st3" d="M35,110.9c0.2,0.1,0.5,0.2,0.5,0.2l10-9.6l-0.4-0.4L35,110.9z"/>
	<path class="st4" d="M35.1,110.9c0.1,0,0.1,0.1,0.1,0.1l10.1-9.6l-0.1-0.1L35.1,110.9z"/>
	<path class="st5" d="M44.1,100.3l-10.2,9.9c0.7,0.4,1.2,0.6,1.2,0.6l10.1-9.6L44.1,100.3z"/>
	<path class="st3" d="M33.7,110.1c0.2,0.1,0.4,0.2,0.4,0.2l10.3-9.9l-0.4-0.4L33.7,110.1z"/>
	<path class="st6" d="M34.8,110.8c0.2,0.1,0.1,0.1,0.1,0.1l10.2-9.8l-0.2-0.2L34.8,110.8z"/>
	<path class="st7" d="M38.9,68.1c-0.5,0.6-6.8,7.1-6.8,7.9c0,0.8,9.8,6.7,11,6.7c1.2,0,9.7-8.7,9.7-9.5
		C52.8,73.3,39.4,67.6,38.9,68.1z"/>
	<path class="st8" d="M34,76.3c0-0.7,4.9-5.9,6.4-7.5c-0.3-0.1-0.5-0.1-0.5,0c-0.5,0.6-6.8,7.1-6.8,7.9c0,0.8,9.8,6.7,11,6.7
		c0.2,0,0.4-0.1,0.8-0.4C43.4,82.8,34,77.1,34,76.3z"/>
	<path class="st9" d="M46.2,81.5c-1.2,0-11-5.9-11-6.7c0,0,0-0.1,0.1-0.2c0.5-0.7,0.8-1.1,1-1.4c-0.2,0-0.3,0-0.3,0
		c-0.4,0.5,0,0.2-1.6,2.3c0,0.1-0.1,0.2-0.1,0.2c0,0.8,9.8,6.7,11,6.7c0.7,0,2.5-1.9,3.7-3.1C47.9,80.4,46.7,81.5,46.2,81.5z"/>
	<path class="st10" d="M74.8,24.6l7.7,6.3c0,0,10.2-3.2,14.1,6.7c3.9,9.9-5.3,15.3-5.3,15.3H38c0,0-10.5,2.2-11.2,10.3
		c-0.7,8.1,1.9,10,1.9,10l9.4-5.4c0,0-1.5-1.5-0.3-5.2c3.7-5.3,10.3-3.1,10.3-3.1l48.4-1c0,0,15.9-9.7,8.9-25.3
		C98.4,17.5,74.8,24.6,74.8,24.6z"/>
	<g>
		<path class="st11" d="M85.4,30.6l-7.2-5.9c0,0,4.7-1.4,10.5-1.6c-6.9-0.2-12.9,1.6-12.9,1.6l7.7,6.3C83.5,31,84.2,30.7,85.4,30.6z
			"/>
		<path class="st11" d="M92.2,52.9h2.4c0,0,9.2-5.4,5.3-15.3c-2.7-6.7-8.2-7.4-11.5-7.1c3.2,0.3,7.1,1.8,9.2,7.1
			C101.4,47.5,92.2,52.9,92.2,52.9z"/>
		<path class="st11" d="M47.2,59.1c1.2,0.1,2,0.4,2,0.4l2.2,0C50.9,59.3,49.2,58.9,47.2,59.1z"/>
		<path class="st11" d="M30.2,63.3c0.7-8.1,11.2-10.3,11.2-10.3h-2.4c0,0-10.5,2.2-11.2,10.3c-0.7,8.1,1.9,10,1.9,10l1.6-0.9
			C30.7,71.1,29.8,68.4,30.2,63.3z"/>
	</g>
	<path class="st12" d="M27.9,73.9c-0.9-1.3,8.6-8.2,9.8-8.6c1.6,0.9,2.5,2.3,3.2,3.7c-0.8,1.7-7,7.5-9.1,8.5
		C30.3,76.9,28.8,75.1,27.9,73.9z"/>
	<path class="st13" d="M32.8,76.1c-1.4-0.4-2.7-2-3.5-3.2c-0.2-0.3,0.3-1,1.1-1.9c-1.3,1.2-2.1,2.2-1.9,2.6c0.8,1.1,2.1,2.7,3.5,3.2
		C33.1,76.3,33.7,75.7,32.8,76.1z"/>
	<path class="st7" d="M52.1,72.8c-3.9,3.3-12.4,14.8-12.8,16.1c-0.4,1.3,4.7,10.2,9.1,9.8c7.8-0.9,24.2-14.3,23.5-16.9
		C71.1,79.2,62.2,70.5,52.1,72.8z"/>
	<path class="st8" d="M39.8,89.1c0.4-1.3,8.9-12.8,12.8-16.1c3.8-0.9,7.4-0.2,10.5,1.1c-3.2-1.5-7-2.3-11-1.4
		C48.2,76,39.6,87.5,39.3,88.8c-0.3,1.1,3.5,8,7.4,9.5C43,96.4,39.5,90.1,39.8,89.1z"/>
	<path class="st7" d="M46.6,89.3c-4.5,1.7-10.1,5-10.1,5.9c0,0.9,6.3,9,10.1,9.2c2.6-2.6,5.9-8.7,6.7-10.5
		C53.5,91.6,51.2,87.6,46.6,89.3z"/>
	<path class="st8" d="M50.4,89.1c1.8,1,2.6,3,2.5,4.4c-0.9,1.8-4.1,7.9-6.7,10.5c-0.5,0-1-0.2-1.5-0.4c0.7,0.3,1.3,0.5,1.8,0.5
		c2.6-2.6,5.9-8.7,6.7-10.5C53.3,92.2,52.4,89.9,50.4,89.1z"/>
	<path class="st8" d="M37.9,95.2c0-0.9,5.5-4.2,10.1-5.9c0.5-0.2,1-0.3,1.4-0.3c-0.8-0.1-1.7,0-2.8,0.3c-4.5,1.7-10.1,5-10.1,5.9
		c0,0.9,6.3,9,10.1,9.2c0.1-0.1,0.2-0.2,0.2-0.2C43.1,102.7,37.9,96,37.9,95.2z"/>
	<path class="st0" d="M92.1,53.7c0.9,0.2,1.7,0.6,2.5,1c0.8,0.4,1.6,0.8,2.3,1.3c0.7,0.5,1.5,1.1,2.1,1.7c0.6,0.6,1.2,1.3,1.7,2.1
		c-0.6-0.6-1.3-1.2-2-1.8c-0.7-0.5-1.4-1.1-2.1-1.6C95.2,55.4,93.7,54.5,92.1,53.7z"/>
	<path class="st14" d="M52.7,73.8c-1.7,0.6-4.4,4.6-5.2,5.8c13.9-4.8,21.9,4.5,22.6,4C69.8,81.2,67.8,74.6,52.7,73.8z"/>
	<path class="st14" d="M51.3,90.5c0.7,0,1,1.3,1.3,1.7s-6.2,10.9-7,10.7c-0.7-0.2-3.8-2.6-3.8-3.4S50.7,90.5,51.3,90.5z"/>
	<path class="st15" d="M28.6,17.7c-0.9,1.4-1.7,2.8-2.4,4.3c-0.7,1.4-1.4,2.9-2,4.4c-1.2,3-2.1,6.1-2.3,9.3
		c-0.1,1.6-0.1,3.2,0.1,4.7c0.3,1.5,0.7,3.1,1.4,4.4c0.7,1.4,1.6,2.6,2.7,3.5c1.2,0.9,2.6,1.4,4.1,1.7c1.5,0.3,3.1,0.3,4.7,0.3
		c0.8,0,1.6,0,2.5,0c0.8,0,1.7,0.1,2.5,0.1c1.7,0.1,3.3,0.3,4.9,0.6c1.6,0.2,3.3,0.6,4.9,1c3.2,0.8,6.4,1.8,9.5,3.3
		c3,1.4,5.9,3.3,8.4,5.6c2.5,2.3,4.6,5.2,5.8,8.4c0.6,1.6,1.1,3.2,1.6,4.8c0.4,1.6,0.8,3.2,1.2,4.8c0.4,1.6,0.7,3.2,1,4.8
		c0.3,1.6,0.5,3.2,0.7,4.9c0.1,0.8,0.2,1.6,0.3,2.4l0.2,2.4c0.2,1.6,0.4,3.2,0.7,4.8c0.6,3.1,1.6,6.2,3.1,9c0.8,1.4,1.7,2.7,2.7,3.9
		c1,1.2,2.2,2.3,3.4,3.4c1.2,1,2.5,2,3.9,2.8c0.7,0.4,1.4,0.7,2.2,1c0.8,0.3,1.5,0.5,2.3,0.6c3.1,0.5,6.5-0.2,9.2-2
		c-0.6,0.5-1.3,0.9-2.1,1.3c-0.7,0.4-1.5,0.6-2.3,0.9c-1.6,0.4-3.3,0.5-4.9,0.3c-0.8-0.1-1.6-0.3-2.4-0.5c-0.8-0.3-1.6-0.6-2.3-0.9
		c-1.5-0.7-2.9-1.7-4.2-2.7c-2.6-2-5-4.5-6.7-7.4c-1.7-2.9-2.8-6.1-3.6-9.3c-0.4-1.6-0.6-3.3-0.9-4.9l-0.3-2.4
		c-0.1-0.8-0.2-1.6-0.4-2.4c-0.5-3.2-1.1-6.4-1.9-9.5c-0.4-1.6-0.8-3.1-1.2-4.7c-0.5-1.5-1-3.1-1.6-4.5c-0.6-1.4-1.3-2.8-2.2-4
		c-0.9-1.3-1.9-2.4-3.1-3.5c-2.3-2.1-5-3.8-7.8-5.1c-2.8-1.4-5.9-2.4-9-3.2c-3.1-0.8-6.3-1.3-9.4-1.6c-0.8-0.1-1.6-0.1-2.4-0.2
		c-0.8,0-1.6,0-2.4,0c-1.7,0-3.4-0.1-5.1-0.5c-1.7-0.4-3.4-1.1-4.8-2.2c-1.4-1.1-2.5-2.6-3.2-4.2c-0.3-0.8-0.6-1.6-0.8-2.4
		c-0.2-0.8-0.4-1.6-0.5-2.5c-0.2-1.7-0.1-3.4,0.1-5.1c0.2-1.7,0.6-3.3,1.1-4.9c0.5-1.6,1.1-3.1,1.8-4.6C25,23.1,26.7,20.3,28.6,17.7
		z"/>
	<path class="st15" d="M78.9,115.1c-2.7,2.6-7.2,2.2-7.2,2.2s-0.2-4.5,2.5-7.1s7.2-2.2,7.2-2.2S81.5,112.5,78.9,115.1z"/>
	<path class="st16" d="M71.8,117.3c0.2-1.5,0.8-4.9,2.9-7c2-1.9,5-2.3,6.5-2.4c-0.7,0-4.6-0.1-7.1,2.2
		C71.6,112.8,71.8,117.3,71.8,117.3C71.8,117.3,71.8,117.3,71.8,117.3z"/>
	<path class="st16" d="M81.2,108.1c-0.4,0.8-0.8,1.6-1.4,2.4c-0.5,0.8-1.1,1.5-1.7,2.2c-0.6,0.7-1.3,1.3-2,1.9
		c-0.4,0.3-0.7,0.5-1.2,0.8c-0.4,0.2-0.8,0.4-1.3,0.5c0.8-0.4,1.4-1,2.1-1.7c0.6-0.6,1.2-1.3,1.8-1.9l1.8-2
		C80,109.4,80.6,108.8,81.2,108.1z"/>
	<path class="st15" d="M111.9,114c-3.7-0.2-6.8,3.1-6.8,3.1s2.9,3.5,6.6,3.7c3.7,0.2,6.8-3.1,6.8-3.1S115.6,114.2,111.9,114z"/>
	<path class="st16" d="M105.1,117c1.1,1,3.8,3.1,6.8,3.3c2.8,0.1,5.3-1.6,6.5-2.6c-0.5,0.5-3.4,3.1-6.8,3
		C107.9,120.5,105,117,105.1,117C105,117,105.1,117,105.1,117z"/>
	<path class="st16" d="M115.7,117.7c-0.9-0.1-1.8-0.2-2.7-0.3l-2.7-0.3c-0.9-0.1-1.8-0.2-2.6-0.3c-0.9,0-1.8-0.1-2.6,0.1
		c0.4-0.3,0.8-0.4,1.3-0.5c0.5-0.1,0.9-0.2,1.4-0.2c0.9-0.1,1.8,0,2.7,0.1c0.9,0.1,1.8,0.3,2.7,0.5
		C114,117.1,114.8,117.4,115.7,117.7z"/>
	<path class="st15" d="M95.4,122.1c-0.5,1.8-2.5,2.8-2.5,2.8s-1.2-1.9-0.7-3.7c0.5-1.8,2.5-2.8,2.5-2.8S95.9,120.3,95.4,122.1z"/>
	<path class="st16" d="M92.9,124.9c-0.3-0.7-0.9-2.3-0.5-3.7c0.4-1.3,1.6-2.3,2.2-2.7c-0.3,0.2-2,1.1-2.5,2.8
		C91.7,123,92.9,124.9,92.9,124.9C92.9,124.9,92.9,124.9,92.9,124.9z"/>
	<path class="st16" d="M94.6,118.5c0.1,0.5,0.2,0.9,0.2,1.4c0,0.5,0,0.9-0.1,1.4c-0.1,0.5-0.2,0.9-0.4,1.3c-0.2,0.4-0.5,0.9-0.9,1.1
		c0.2-0.4,0.2-0.9,0.3-1.3l0.2-1.3c0.1-0.4,0.2-0.9,0.3-1.3C94.3,119.4,94.4,119,94.6,118.5z"/>
	<path class="st15" d="M81.3,83.1c3.3-1.7,7.5-0.1,7.5-0.1s-1.1,4.4-4.4,6.1c-3.3,1.7-7.5,0.1-7.5,0.1S78.1,84.8,81.3,83.1z"/>
	<path class="st16" d="M88.7,82.9c-0.6,1.4-2.1,4.5-4.8,5.8c-2.5,1.3-5.4,0.8-6.9,0.4c0.6,0.2,4.4,1.4,7.4-0.2
		C87.7,87.3,88.8,82.9,88.7,82.9C88.8,82.9,88.7,82.9,88.7,82.9z"/>
	<path class="st16" d="M77.2,89.1c0.6-0.7,1.3-1.3,2-1.9c0.7-0.6,1.4-1.1,2.2-1.6c0.8-0.5,1.6-0.9,2.4-1.3c0.4-0.2,0.9-0.3,1.3-0.4
		c0.5-0.1,0.9-0.1,1.4-0.1c-0.9,0.2-1.7,0.6-2.4,1c-0.8,0.4-1.5,0.9-2.3,1.4l-2.3,1.4C78.7,88.2,77.9,88.7,77.2,89.1z"/>
	<path class="st15" d="M35.3,15.5c-2.7,5.3-9.7,7.1-9.7,7.1s-2.6-6.7,0.1-12s9.7-7.1,9.7-7.1S38,10.2,35.3,15.5z"/>
	<path class="st16" d="M25.8,22.5c-0.5-2.3-1.3-7.8,0.8-12c2-4,6.3-6.1,8.6-6.9c-1,0.3-7,2.2-9.5,7C23.1,15.8,25.7,22.5,25.8,22.5
		C25.7,22.5,25.8,22.5,25.8,22.5z"/>
	<path class="st16" d="M33.2,7.1c-0.2,1.4-0.6,2.8-1,4.2c-0.4,1.4-0.9,2.7-1.4,4.1c-0.6,1.3-1.2,2.6-2,3.9c-0.4,0.6-0.8,1.2-1.3,1.8
		c-0.5,0.5-1,1.1-1.6,1.4c0.5-0.5,1-1.1,1.4-1.7c0.4-0.6,0.7-1.2,1.1-1.8c0.3-0.6,0.6-1.3,0.9-1.9c0.3-0.6,0.6-1.3,0.9-2
		c0.3-0.7,0.5-1.3,0.8-2c0.3-0.7,0.5-1.3,0.8-2C32.2,9.8,32.7,8.5,33.2,7.1z"/>
	<path class="st15" d="M17.4,33.4c2.9,1.8,3.7,6,3.7,6s-4.1,1.2-7-0.6s-3.7-6-3.7-6S14.5,31.6,17.4,33.4z"/>
	<path class="st16" d="M21.1,39.3c-1.4,0.2-4.6,0.4-7-1.1c-2.2-1.4-3.2-4-3.6-5.4c0.1,0.6,1,4.2,3.7,5.9
		C17,40.6,21.1,39.4,21.1,39.3C21.1,39.4,21.1,39.3,21.1,39.3z"/>
	<path class="st16" d="M12.4,34.1c0.8,0.1,1.7,0.4,2.5,0.7c0.8,0.3,1.6,0.6,2.3,1c0.8,0.4,1.5,0.8,2.2,1.4c0.3,0.3,0.7,0.6,1,0.9
		c0.3,0.3,0.6,0.7,0.7,1.1c-0.6-0.6-1.3-1.1-2-1.5c-0.7-0.4-1.4-0.8-2.2-1.2l-2.2-1.1C13.9,35,13.1,34.6,12.4,34.1z"/>
	<path class="st15" d="M30.4,44.7c-1,2.9-4.4,4.3-4.4,4.3s-1.8-3.2-0.8-6.1c1-2.9,4.4-4.3,4.4-4.3S31.4,41.9,30.4,44.7z"/>
	<path class="st16" d="M26,48.9c-0.4-1.2-1.2-3.9-0.4-6.2c0.8-2.2,2.8-3.5,3.9-4.1c-0.5,0.2-3.4,1.6-4.4,4.2
		C24.2,45.7,26,49,26,48.9C26,49,26,49,26,48.9z"/>
	<path class="st16" d="M28.6,40.6c0.1,0.8,0,1.5-0.1,2.2c-0.1,0.7-0.2,1.5-0.4,2.2c-0.2,0.7-0.4,1.4-0.8,2.1
		c-0.1,0.2-0.2,0.3-0.3,0.5l-0.3,0.5c-0.1,0.1-0.2,0.3-0.4,0.4c-0.1,0.1-0.3,0.2-0.4,0.4c0.4-0.6,0.6-1.3,0.9-2
		c0.2-0.7,0.4-1.4,0.6-2.1c0.2-0.7,0.4-1.4,0.6-2.1C28.1,42,28.3,41.3,28.6,40.6z"/>
	<path class="st1" d="M34.2,54.9c0,0-3.5,1.3-4.2,2.8c-0.8,1.5,2.1,3.2,2.1,3.2S58.4,68,70.6,73c6.8,2.4,32.3-5.8,32.9-8.4
		c1.1-7.1-10.3-14.1-10.3-14.1L34.2,54.9z"/>
	<path class="st1" d="M93.7,55.4c0,0,1.8-35.2-31.8-35.2s-28.6,38-28.6,38s15.7,6.4,33.7,3.7C85,59.1,93.7,55.4,93.7,55.4z"/>
	<path class="st17" d="M52,59.4c-18-2.8-18.8-4-18.8-4s-1.2-23.8,17.1-32.3c0,0-17.1,18.2-5.1,28.2c3.6,7.4,45.9,1.6,45.9,1.6
		S70.3,60.8,52,59.4z"/>
	<path class="st0" d="M93.9,51.6c0,0-8.8,3.7-26.8,6.4s-33.7-3.7-33.7-3.7s-0.2-1.8-0.3-4.5c0,3.4,0.3,5.6,0.3,5.6
		s15.7,6.4,33.7,3.7s26.8-6.4,26.8-6.4s0-0.5,0-1.5C93.9,51.5,93.9,51.6,93.9,51.6z"/>
	<path class="st0" d="M47.5,23.4c0,0,2.4-3.2,8.4-3.2s11.9,10,11.9,10s-6-8.1-12-8.4S47.5,23.4,47.5,23.4z"/>
	<path class="st17" d="M50.5,21.3c6.9-3.9,12-3.3,15.9-2.3s5.4,1.4,7.5,2.6c2.1,1.1,7.3,7.3,7.3,7.3l-13.4,1.4
		C67.8,30.3,58.9,17.6,50.5,21.3z"/>
	<path class="st0" d="M67.8,30.3c0,0-7.6-10.8-15.4-9.5c-0.6,0.3-1.2,0.6-1.9,1c8.4-3.7,17.3,9,17.3,9l13.4-1.4c0,0-0.1-0.1-0.3-0.4
		L67.8,30.3z"/>
	<path class="st0" d="M70.3,26.8c0,0-6.7-6.8-10-7.4c-3.3-0.6-5.9,0-5.9,0s2.8-1.1,6.4-0.7S70.3,26.8,70.3,26.8z"/>
	<path class="st0" d="M75.3,25.7c0,0-2.4-4-7.4-5.7c-3.3-1.1-5.6-1.7-5.6-1.7s2.2,0.1,6.2,1.1C72.5,20.4,75.3,25.7,75.3,25.7z"/>
	<path class="st18" d="M54.4,19.4"/>
	<path class="st17" d="M32.3,50.4c0.4-0.7,1.1-0.3,1.1-0.3l0.4,8.2h-1.2C32.5,58.4,31.8,51.2,32.3,50.4z"/>
	<path class="st0" d="M33.4,50.2c0,0-0.3-0.2-0.6-0.1c0.2,0,0.3,0.1,0.3,0.1l0.4,8.2h0.3L33.4,50.2z"/>
	<path class="st0" d="M39.9,57.8c0.3,0.3-0.3,3.2-0.3,3.2l-6.5-1.7c0,0,0-1.8,0.3-2.3c0.3-0.5,1.3-0.7,1.8-0.6
		C35.7,56.6,39.6,57.5,39.9,57.8z"/>
	<path class="st0" d="M92.7,51.3c1.2,0.6,2.3,1.3,3.3,2c0.5,0.4,1,0.8,1.5,1.2c0.5,0.4,1,0.9,1.5,1.3c0.5,0.5,0.9,0.9,1.3,1.4
		c0.4,0.5,0.8,1,1.2,1.6c0.4,0.6,0.7,1.1,0.9,1.8c0.2,0.6,0.4,1.3,0.4,1.9c-0.4-1.2-1.1-2.3-1.8-3.3c-0.8-1-1.6-1.9-2.6-2.8
		c-0.9-0.9-1.9-1.7-2.8-2.6C94.7,53,93.7,52.2,92.7,51.3z"/>
	<path class="st1" d="M33.5,57c-0.4,0.2-0.4,2.3-0.4,2.3s4.3,0.5,4.6,0.5c0.3,0,0.1-1.7,0.1-1.7S33.8,56.8,33.5,57z"/>
	<path class="st17" d="M34.8,56.5c0,0-1.1,0.1-1.3,0.4c-0.2,0.4,4.5,1.6,5.3,1.6c0.7,0,1.1-0.7,1.1-0.7L34.8,56.5z"/>
	<path class="st0" d="M31.8,56.5c-0.3,0.2-0.5,0.4-0.7,0.7c-0.2,0.2-0.4,0.5-0.5,0.8c0,0,0,0.1,0,0.1c0,0,0,0,0.1,0
		c0.1,0,0.1,0.1,0.2,0.1c0.1,0.1,0.3,0.1,0.5,0.2c0.3,0.1,0.6,0.3,0.9,0.4c1.2,0.5,2.5,0.9,3.8,1.4c2.5,0.9,5.1,1.8,7.6,2.7
		l15.2,5.2l7.6,2.6l3.8,1.3c0.6,0.2,1.3,0.4,1.9,0.6c0.6,0.1,1.3,0.2,1.9,0.2c1.3,0,2.7-0.1,4-0.3c1.3-0.2,2.6-0.4,4-0.6
		c2.6-0.5,5.2-1.1,7.8-1.8c-1.3,0.4-2.6,0.8-3.9,1.2c-1.3,0.4-2.6,0.7-3.9,1c-1.3,0.3-2.6,0.5-4,0.8c-1.3,0.2-2.7,0.4-4,0.4
		c-0.7,0-1.4,0-2.1-0.1c-0.3-0.1-0.7-0.2-1-0.3l-1-0.3l-3.8-1.2c-2.5-0.8-5.1-1.7-7.6-2.6c-5.1-1.8-10.1-3.5-15.2-5.4
		c-2.5-0.9-5-1.9-7.5-2.9c-1.2-0.5-2.5-1-3.7-1.5c-0.3-0.1-0.6-0.3-0.9-0.4c-0.2-0.1-0.3-0.1-0.5-0.2c-0.1,0-0.1-0.1-0.2-0.1
		c0,0,0,0-0.1,0c0,0,0,0,0,0c0,0,0,0,0-0.1c0-0.1,0-0.1,0-0.1c0.1-0.4,0.3-0.6,0.5-0.9C31.3,56.9,31.5,56.7,31.8,56.5z"/>
	<path class="st0" d="M34.8,56.6c0,0-0.6,0-0.8,0.3c-0.2,0.3,3.3,1.2,3.9,1.2s0.8-0.3,0.8-0.3L34.8,56.6z"/>
	<path class="st17" d="M67.8,70.2c0,0,7.2-1.5,8.1-6.2c17.9-5.3,23-4.8,26.6-0.7c-1,3.6-26,9.9-29.3,9
		C69.9,71.4,67.8,70.2,67.8,70.2z"/>
	<path class="st17" d="M41,58.7c0,0,16.3,4.9,39.2-1.4c2.2,4-10.5,6.6-16.8,6.6s-7,3-7,3l-18.6-7.3L41,58.7z"/>
	<path class="st0" d="M51.8,62.5c0,0,0.2-4.6,0.5-9.3c1.1-3.3,10.5-3.9,11.6-0.6C65,56,65,62.5,65,62.5H51.8z"/>
	<path class="st17" d="M51.9,62.5c0,0,0.2-4.3,0.5-8.8c1.1-3.1,10.5-3.7,11.6-0.5c1.1,3.2,1.1,9.3,1.1,9.3H51.9z"/>
	<path class="st0" d="M52.4,62.3c0,0,0-7.1,0.3-8.7c0.3-1.5,10.5-1.2,10.7,0c0.2,1.2,0.8,8.6,0.8,8.6L52.4,62.3z"/>
	<path class="st17" d="M78.2,39.5c0.1,0,0.2,0.1,0.2,0.2c0.1,0.1,0.1,0.1,0.2,0.2c0.1,0.1,0.2,0.3,0.3,0.4c0.2,0.3,0.4,0.6,0.6,0.9
		c0.4,0.6,0.8,1.2,1.1,1.8c0.7,1.2,1.3,2.5,1.8,3.9c0.5,1.3,0.9,2.7,1.1,4.1c0.2,1.4,0.3,2.9-0.1,4.3c-0.1-1.4-0.5-2.7-0.9-4.1
		c-0.4-1.3-0.9-2.6-1.3-3.9c-0.5-1.3-1-2.6-1.5-3.9l-0.8-1.9c-0.1-0.3-0.3-0.6-0.4-1c-0.1-0.2-0.1-0.3-0.2-0.5
		C78.4,39.8,78.3,39.6,78.2,39.5z"/>
	<path class="st17" d="M83.9,41c0.1,0,0.1,0.1,0.2,0.1c0.1,0.1,0.1,0.1,0.2,0.2c0.1,0.1,0.2,0.2,0.3,0.3c0.2,0.2,0.3,0.5,0.5,0.7
		c0.3,0.5,0.6,1,0.9,1.5c0.5,1.1,0.9,2.2,1.2,3.3c0.3,1.1,0.5,2.3,0.6,3.5c0,1.2,0,2.4-0.4,3.5c-0.2-1.2-0.4-2.3-0.6-3.4
		c-0.2-1.1-0.5-2.2-0.8-3.3c-0.3-1.1-0.6-2.2-0.9-3.3l-0.5-1.6c-0.1-0.3-0.2-0.5-0.3-0.8c0-0.1-0.1-0.3-0.1-0.4
		C84.1,41.3,84,41.1,83.9,41z"/>
</g>
</svg>
