<svg height="480pt" viewBox="0 0 480 480.00002" width="480pt" xmlns="http://www.w3.org/2000/svg"><path d="m472 228.160156v23.679688c-.003906 1.941406-1.4375 3.582031-3.359375 3.839844l-22.640625 2.800781c-.742188 2.277343-1.648438 4.496093-2.71875 6.640625l14 18c1.1875 1.515625 1.050781 3.683594-.320312 5.039062l-16.800782 16.800782c-1.355468 1.371093-3.523437 1.507812-5.039062.320312l-18-14c-2.144532 1.070312-4.363282 1.976562-6.640625 2.71875l-2.800781 22.640625c-.257813 1.921875-1.898438 3.355469-3.839844 3.359375h-23.679688c-1.941406-.003906-3.582031-1.4375-3.839844-3.359375l-1.921874-15.359375-.878907-7.28125c-2.277343-.742188-4.496093-1.648438-6.640625-2.71875l-18 14c-1.515625 1.1875-3.683594 1.050781-5.039062-.320312l-14.238282-14.242188-2.5625-2.558594c-1.371093-1.355468-1.507812-3.523437-.320312-5.039062l14-18c-1.070312-2.144532-1.976562-4.363282-2.71875-6.640625l-22.640625-2.800781c-1.921875-.257813-3.355469-1.898438-3.359375-3.839844v-23.679688c.003906-1.941406 1.4375-3.582031 3.359375-3.839844l22.640625-2.800781c.742188-2.277343 1.648438-4.496093 2.71875-6.640625l-14-18c-1.1875-1.515625-1.050781-3.683594.320312-5.039062l16.800782-16.800782c1.355468-1.371093 3.523437-1.507812 5.039062-.320312l18 14c2.144532-1.070312 4.363282-1.976562 6.640625-2.71875l.878907-7.28125 1.921874-15.359375c.257813-1.921875 1.898438-3.355469 3.839844-3.359375h23.679688c1.941406.003906 3.582031 1.4375 3.839844 3.359375l2.800781 22.640625c2.277343.742188 4.496093 1.648438 6.640625 2.71875l18-14c1.515625-1.1875 3.683594-1.050781 5.039062.320312l16.800782 16.800782c1.371093 1.355468 1.507812 3.523437.320312 5.039062l-14 18c1.070312 2.144532 1.976562 4.363282 2.71875 6.640625l22.640625 2.800781c1.921875.257813 3.355469 1.898438 3.359375 3.839844zm0 0" fill="#a78966"/><path d="m424 240c0 17.671875-14.328125 32-32 32s-32-14.328125-32-32 14.328125-32 32-32 32 14.328125 32 32zm0 0" fill="#898890"/><path d="m368 380.160156v23.679688c-.003906 1.941406-1.4375 3.582031-3.359375 3.839844l-22.640625 2.800781c-.742188 2.277343-1.648438 4.496093-2.71875 6.640625l14 18c1.1875 1.515625 1.050781 3.683594-.320312 5.039062l-16.800782 16.800782c-1.355468 1.371093-3.523437 1.507812-5.039062.320312l-18-14c-2.144532 1.070312-4.363282 1.976562-6.640625 2.71875l-2.800781 22.640625c-.257813 1.921875-1.898438 3.355469-3.839844 3.359375h-23.679688c-1.941406-.003906-3.582031-1.4375-3.839844-3.359375l-2.800781-22.640625c-2.277343-.742188-4.496093-1.648438-6.640625-2.71875l-18 14c-1.515625 1.1875-3.683594 1.050781-5.039062-.320312l-16.800782-16.800782c-1.371093-1.355468-1.507812-3.523437-.320312-5.039062l14-18c-1.070312-2.144532-1.976562-4.363282-2.71875-6.640625l-22.640625-2.800781c-1.921875-.257813-3.355469-1.898438-3.359375-3.839844v-23.679688c.003906-1.941406 1.4375-3.582031 3.359375-3.839844l22.640625-2.800781c.742188-2.277343 1.648438-4.496093 2.71875-6.640625l-14-18c-1.1875-1.515625-1.050781-3.683594.320312-5.039062l16.800782-16.800782c1.355468-1.371093 3.523437-1.507812 5.039062-.320312l18 14c2.144532-1.070312 4.363282-1.976562 6.640625-2.71875l2.800781-22.640625c.257813-1.921875 1.898438-3.355469 3.839844-3.359375h23.679688c1.941406.003906 3.582031 1.4375 3.839844 3.359375l1.921874 15.359375.878907 7.28125c2.277343.742188 4.496093 1.648438 6.640625 2.71875l18-14c1.515625-1.1875 3.683594-1.050781 5.039062.320312l16.800782 16.800782c1.371093 1.355468 1.507812 3.523437.320312 5.039062l-14 18c1.070312 2.144532 1.976562 4.363282 2.71875 6.640625l22.640625 2.800781c1.921875.257813 3.355469 1.898438 3.359375 3.839844zm0 0" fill="#c0ab91"/><path d="m368 76.160156v23.679688c-.003906 1.941406-1.4375 3.582031-3.359375 3.839844l-22.640625 2.800781c-.742188 2.277343-1.648438 4.496093-2.71875 6.640625l14 18c1.1875 1.515625 1.050781 3.683594-.320312 5.039062l-2.5625 2.558594-14.238282 14.242188c-1.355468 1.371093-3.523437 1.507812-5.039062.320312l-18-14c-2.144532 1.070312-4.363282 1.976562-6.640625 2.71875l-.878907 7.28125-1.921874 15.359375c-.257813 1.921875-1.898438 3.355469-3.839844 3.359375h-23.679688c-1.941406-.003906-3.582031-1.4375-3.839844-3.359375l-2.800781-22.640625c-2.277343-.742188-4.496093-1.648438-6.640625-2.71875l-18 14c-1.515625 1.1875-3.683594 1.050781-5.039062-.320312l-16.800782-16.800782c-1.371093-1.355468-1.507812-3.523437-.320312-5.039062l14-18c-1.070312-2.144532-1.976562-4.363282-2.71875-6.640625l-22.640625-2.800781c-1.921875-.257813-3.355469-1.898438-3.359375-3.839844v-23.679688c.003906-1.941406 1.4375-3.582031 3.359375-3.839844l22.640625-2.800781c.742188-2.277343 1.648438-4.496093 2.71875-6.640625l-14-18c-1.1875-1.515625-1.050781-3.683594.320312-5.039062l16.800782-16.800782c1.355468-1.371093 3.523437-1.507812 5.039062-.320312l18 14c2.144532-1.070312 4.363282-1.976562 6.640625-2.71875l2.800781-22.640625c.257813-1.921875 1.898438-3.355469 3.839844-3.359375h23.679688c1.941406.003906 3.582031 1.4375 3.839844 3.359375l2.800781 22.640625c2.277343.742188 4.496093 1.648438 6.640625 2.71875l18-14c1.515625-1.1875 3.683594-1.050781 5.039062.320312l16.800782 16.800782c1.371093 1.355468 1.507812 3.523437.320312 5.039062l-14 18c1.070312 2.144532 1.976562 4.363282 2.71875 6.640625l22.640625 2.800781c1.921875.257813 3.355469 1.898438 3.359375 3.839844zm0 0" fill="#c0ab91"/><path d="m320 88c0 17.671875-14.328125 32-32 32s-32-14.328125-32-32 14.328125-32 32-32 32 14.328125 32 32zm0 0" fill="#898890"/><path d="m288 360c17.671875 0 32 14.328125 32 32s-14.328125 32-32 32c-17.65625-.039062-31.960938-14.34375-32-32 0-17.671875 14.328125-32 32-32zm0 0" fill="#898890"/><path d="m176 215.039062v49.921876c-.011719 4.039062-3.03125 7.433593-7.039062 7.917968l-47.519532 5.921875c-1.625 4.757813-3.546875 9.40625-5.761718 13.917969l29.441406 37.839844c2.476562 3.179687 2.203125 7.703125-.640625 10.5625l-14.960938 14.957031-20.320312 20.320313c-2.894531 2.902343-7.5 3.175781-10.71875.640624l-37.761719-29.359374c-4.511719 2.214843-9.160156 4.136718-13.917969 5.761718l-5.921875 47.519532c-.484375 4.007812-3.878906 7.027343-7.917968 7.039062h-24.960938v-100.078125c38.402344-1.8125 68.605469-33.476563 68.605469-71.921875s-30.203125-70.109375-68.605469-71.921875v-92.078125h24.960938c4.039062.011719 7.433593 3.03125 7.917968 7.039062l5.921875 47.519532c4.757813 1.625 9.40625 3.546875 13.917969 5.761718l37.839844-29.441406c3.179687-2.476562 7.703125-2.203125 10.5625.640625l17.199218 17.199219 18.078126 18.082031c2.902343 2.894531 3.175781 7.5.640624 10.71875l-29.359374 37.761719c2.214843 4.511719 4.136718 9.160156 5.761718 13.917969l47.519532 5.921875c4.007812.484375 7.027343 3.878906 7.039062 7.917968zm0 0" fill="#a78966"/><path d="m8 164.078125c38.402344 1.8125 68.605469 33.476563 68.605469 71.921875s-30.203125 70.109375-68.605469 71.921875zm0 0" fill="#898890"/><path d="m469.65625 216.40625-15.894531-2.007812 9.832031-12.636719c3.644531-4.707031 3.230469-11.390625-.96875-15.609375l-16.800781-16.800782c-4.214844-4.203124-10.898438-4.617187-15.601563-.96875l-12.621094 9.855469-1.992187-15.894531c-.746094-5.914062-5.777344-10.347656-11.738281-10.34375h-23.742188c-3.765625.046875-7.277344 1.910156-9.433594 5l-10.488281-17.480469c2.582031-4.125 2.335938-9.417969-.613281-13.289062l-9.832031-12.628907 15.894531-1.992187c5.914062-.746094 10.347656-5.777344 10.34375-11.738281v-23.742188c-.003906-5.953125-4.4375-10.976562-10.34375-11.722656l-15.894531-2.007812 9.832031-12.636719c3.644531-4.707031 3.230469-11.390625-.96875-15.609375l-16.800781-16.800782c-4.214844-4.199218-10.898438-4.613281-15.601563-.96875l-12.621094 9.855469-1.992187-15.894531c-.746094-5.914062-5.777344-10.34765625-11.738281-10.34375h-23.742188c-5.953125.00390625-10.976562 4.4375-11.722656 10.34375l-2.007812 15.894531-12.636719-9.832031c-4.707031-3.644531-11.390625-3.230469-15.609375.96875l-16.800782 16.800781c-4.199218 4.214844-4.613281 10.898438-.96875 15.601563l9.855469 12.621094-15.894531 1.992187c-5.914062.746094-10.347656 5.777344-10.34375 11.738281v6.457032l-71.761719 28.742187-13.445312-13.449219c-5.707031-5.707031-14.773438-6.269531-21.144531-1.3125l-33.992188 26.441406c-1.894531-.84375-3.734375-1.609374-5.519531-2.304687l-5.335938-42.613281c-.964843-8.023438-7.761719-14.066406-15.839843-14.089844h-16.960938v-64h-16v480h16v-64h16.960938c8.066406-.019531 14.855468-6.042969 15.839843-14.046875l5.320313-42.65625c1.785156-.695313 3.625-1.460937 5.519531-2.304687l33.917969 26.398437c6.414062 4.988281 15.535156 4.421875 21.28125-1.320313l16.503906-16.46875 68.65625 29.359376v8.878906c0 5.988281 4.460938 11.039062 10.398438 11.785156l15.847656 1.949219-9.78125 12.59375c-3.703125 4.699219-3.296875 11.429687.941406 15.648437l16.800781 16.800782c4.207031 4.222656 10.90625 4.644531 15.609375.984374l12.582032-9.824218 1.960937 15.855468c.757813 5.933594 5.816406 10.378907 11.800781 10.367188h23.679688c5.988281 0 11.039062-4.460938 11.785156-10.398438l1.949219-15.847656 12.59375 9.78125c4.703125 3.695313 11.425781 3.292969 15.648437-.941406l16.800782-16.800781c4.230468-4.203125 4.652343-10.90625.984374-15.609375l-9.824218-12.582032 15.855468-1.960937c5.933594-.757813 10.378907-5.816406 10.367188-11.800781v-23.679688c-.003906-5.984375-4.460938-11.035156-10.398438-11.777344l-15.824218-1.984374 9.78125-12.589844c3-3.871094 3.257812-9.203125.640625-13.34375l10.496093-17.488282c2.148438 3.097657 5.660157 4.96875 9.433594 5.023438h23.742188c5.953125-.003906 10.976562-4.4375 11.722656-10.34375l2.007812-15.894531 12.636719 9.832031c4.707031 3.652344 11.394531 3.238281 15.609375-.96875l16.800782-16.800781c4.199218-4.214844 4.613281-10.898438.96875-15.601563l-9.855469-12.621094 15.894531-1.992187c5.914062-.746094 10.347656-5.777344 10.34375-11.738281v-23.742188c-.003906-5.953125-4.4375-10.976562-10.34375-11.722656zm-138.472656-40-14.535156-24.222656 9.597656 7.449218c4.707031 3.652344 11.394531 3.238282 15.609375-.96875l6.984375-6.992187 14.535156 24.222656-9.597656-7.445312c-4.707032-3.644531-11.386719-3.230469-15.609375.964843zm-115.183594-96.582031 18.96875-2.398438c3.035156-.382812 5.585938-2.460937 6.574219-5.355469.679687-1.949218 1.480469-3.851562 2.402343-5.703124 1.34375-2.746094 1.003907-6.019532-.875-8.429688l-11.757812-15.074219 11.550781-11.550781 15.105469 11.734375c2.414062 1.878906 5.683594 2.21875 8.429688.875 1.851562-.921875 3.753906-1.722656 5.707031-2.402344 2.894531-.988281 4.96875-3.539062 5.351562-6.574219l2.367188-18.945312h16.351562l2.398438 18.96875c.382812 3.035156 2.460937 5.585938 5.355469 6.574219 1.949218.679687 3.855468 1.480469 5.703124 2.402343 2.746094 1.34375 6.019532 1.003907 8.429688-.875l15.105469-11.734374 11.550781 11.550781-11.765625 15.082031c-1.878906 2.414062-2.21875 5.683594-.875 8.429688.921875 1.851562 1.722656 3.753906 2.402344 5.707031.988281 2.894531 3.539062 4.96875 6.574219 5.351562l18.96875 2.398438v16.351562l-18.96875 2.402344c-3.035157.378906-5.585938 2.457031-6.574219 5.351563-.679688 1.949218-1.480469 3.855468-2.402344 5.703124-1.34375 2.746094-1.003906 6.019532.875 8.433594l11.734375 15.101563-11.550781 11.554687-15.105469-11.738281c-2.398438-1.898437-5.671875-2.261719-8.429688-.9375-1.851562.921875-3.753906 1.722656-5.707031 2.402344-2.894531.988281-4.96875 3.539062-5.351562 6.574219l-2.367188 18.945312h-16.351562l-2.398438-18.96875c-.382812-3.035156-2.460937-5.585938-5.355469-6.574219-1.949218-.679687-3.851562-1.480469-5.703124-2.402343-2.746094-1.34375-6.019532-1.003907-8.429688.875l-15.105469 11.734374-11.550781-11.550781 11.734375-15.105469c1.878906-2.402343 2.230469-5.660156.90625-8.40625-.921875-1.851562-1.722656-3.753906-2.402344-5.707031-.988281-2.894531-3.539062-4.96875-6.574219-5.351562l-18.945312-2.367188zm-200 93.335937c30.113281 5.8125 51.871094 32.171875 51.871094 62.839844s-21.757813 57.027344-51.871094 62.839844zm87.40625 197.601563-37.804688-29.394531c-2.398437-1.867188-5.648437-2.214844-8.386718-.894532-4.203125 2.066406-8.539063 3.863282-12.976563 5.375-2.925781.976563-5.027343 3.546875-5.40625 6.609375l-5.871093 47.542969h-16.960938v-84.878906c39.175781-5.859375 68.167969-39.507813 68.167969-79.121094s-28.992188-73.261719-68.167969-79.121094v-76.878906h16.945312l5.917969 47.519531c.378907 3.0625 2.484375 5.632813 5.410157 6.609375 4.433593 1.511719 8.769531 3.308594 12.972656 5.375 2.738281 1.316406 5.988281.972656 8.386718-.894531l37.847657-29.441406 35.273437 35.398437-29.386718 37.832032c-1.867188 2.398437-2.214844 5.648437-.894532 8.386718 2.066406 4.203125 3.863282 8.539063 5.375 12.976563.976563 2.925781 3.546875 5.027343 6.609375 5.40625l47.542969 5.871093v49.90625l-47.519531 5.917969c-3.0625.378907-5.632813 2.484375-6.609375 5.410157-1.511719 4.433593-3.308594 8.769531-5.375 12.972656-1.316406 2.738281-.972656 5.988281.894531 8.386718l29.441406 37.847657zm48-45.105469-26.398438-33.992188c.84375-1.894531 1.609376-3.734374 2.304688-5.519531l42.617188-5.3125c8.027343-.972656 14.066406-7.785156 14.070312-15.871093v-49.921876c-.019531-8.066406-6.042969-14.855468-14.046875-15.839843l-42.65625-5.320313c-.695313-1.78125-1.460937-3.621094-2.304687-5.519531l26.398437-33.917969c4.984375-6.414062 4.417969-15.535156-1.320313-21.28125l-9.511718-9.503906 59.441406-23.832031v.046875c.003906 5.953125 4.4375 10.976562 10.34375 11.722656l15.894531 1.992188-9.832031 12.636718c-3.644531 4.707032-3.230469 11.390625.96875 15.609375l16.800781 16.800781c4.214844 4.203126 10.898438 4.617188 15.601563.96875l12.621094-9.839843 1.992187 15.894531c.746094 5.914062 5.777344 10.347656 11.738281 10.34375h23.742188c3.765625-.046875 7.277344-1.910156 9.433594-5l10.488281 17.480469c-2.582031 4.125-2.335938 9.417969.613281 13.289062l9.832031 12.628907-15.894531 1.992187c-5.914062.746094-10.347656 5.777344-10.34375 11.738281v23.742188c.003906 5.953125 4.4375 10.976562 10.34375 11.722656l15.894531 1.992188-9.832031 12.636718c-2.949219 3.875-3.195312 9.167969-.613281 13.296875l-10.488281 17.472657c-2.171876-3.089844-5.691407-4.945313-9.464844-4.992188h-23.679688c-5.988281 0-11.039062 4.460938-11.785156 10.398438l-1.976562 15.824218-12.589844-9.78125c-4.699219-3.703125-11.425782-3.296875-15.648438.941406l-16.800781 16.800782c-4.230469 4.203125-4.652344 10.90625-.984375 15.609375l9.847656 12.605469-15.855468 1.960937c-4.96875.675781-8.957032 4.4375-9.917969 9.359375l-56.914063-24.367188 6.585938-6.582031c5.695312-5.707031 6.257812-14.757812 1.3125-21.121093zm190.402344-4.265625c-4.207032-4.226563-10.90625-4.648437-15.609375-.984375l-9.535157 7.425781 14.535157-24.199219 6.984375 6.992188c4.214844 4.207031 10.898437 4.621094 15.601562.96875l9.597656-7.449219-14.582031 24.230469zm18.191406 62.417969v16.382812l-18.984375 2.34375c-3.128906.394532-5.734375 2.585938-6.65625 5.601563-.621094 1.902343-1.386719 3.753906-2.289063 5.542969-1.3125 2.734374-.964843 5.980468.898438 8.375l11.726562 15.082031-11.582031 11.582031-15.082031-11.726562c-2.394531-1.863282-5.640625-2.210938-8.375-.894532-1.789062.898438-3.640625 1.664063-5.542969 2.285156-3.015625.921876-5.210937 3.527344-5.601562 6.65625l-2.320313 18.960938h-16.382812l-2.34375-18.984375c-.394532-3.128906-2.585938-5.734375-5.601563-6.65625-1.902343-.621094-3.753906-1.386719-5.542969-2.289063-2.734374-1.3125-5.980468-.964843-8.375.898438l-15.082031 11.726562-11.582031-11.582031 11.726562-15.082031c1.863282-2.394531 2.210938-5.640625.894532-8.375-.898438-1.789062-1.664063-3.640625-2.285156-5.542969-.921876-3.015625-3.527344-5.210937-6.65625-5.601562l-18.960938-2.320313v-16.382812l18.984375-2.34375c3.128906-.394532 5.734375-2.585938 6.65625-5.601563.621094-1.902343 1.386719-3.753906 2.289063-5.542969 1.3125-2.734374.964843-5.980468-.898438-8.375l-11.726562-15.082031 11.582031-11.582031 15.082031 11.726562c2.394531 1.863282 5.640625 2.210938 8.375.894532 1.789062-.898438 3.640625-1.664063 5.542969-2.285156 3.015625-.921876 5.210937-3.527344 5.601562-6.65625l2.320313-18.960938h16.390625l2.335937 18.960938c.382813 3.136718 2.578125 5.753906 5.601563 6.679687 1.902343.621094 3.753906 1.386719 5.542969 2.289063 2.734374 1.3125 5.980468.964843 8.375-.898438l15.082031-11.726562 11.582031 11.582031-11.726562 15.082031c-1.863282 2.394531-2.210938 5.640625-.894532 8.375.898438 1.789062 1.664063 3.640625 2.285156 5.542969.921876 3.015625 3.527344 5.210937 6.65625 5.601562zm104-135.632813-18.96875 2.398438c-3.035156.382812-5.585938 2.460937-6.574219 5.355469-.679687 1.949218-1.480469 3.851562-2.402343 5.703124-1.34375 2.746094-1.003907 6.019532.875 8.429688l11.734374 15.105469-11.550781 11.550781-15.105469-11.734375c-2.402343-1.878906-5.660156-2.230469-8.40625-.90625-1.851562.921875-3.753906 1.722656-5.707031 2.402344-2.894531.988281-4.96875 3.539062-5.351562 6.574219l-2.367188 18.945312h-16.351562l-2.398438-18.96875c-.382812-3.035156-2.460937-5.585938-5.355469-6.574219-1.949218-.679687-3.851562-1.480469-5.703124-2.402343-2.746094-1.34375-6.019532-1.003907-8.429688.875l-15.105469 11.734374-11.550781-11.550781 11.734375-15.105469c1.878906-2.402343 2.230469-5.660156.90625-8.40625-.921875-1.851562-1.722656-3.753906-2.402344-5.707031-.988281-2.894531-3.539062-4.96875-6.574219-5.351562l-18.945312-2.367188v-16.351562l18.96875-2.398438c3.035156-.382812 5.585938-2.460937 6.574219-5.355469.679687-1.949218 1.480469-3.851562 2.402343-5.703124 1.34375-2.746094 1.003907-6.019532-.875-8.429688l-11.734374-15.105469 11.550781-11.550781 15.105469 11.734375c2.414062 1.878906 5.683593 2.21875 8.433593.871094 1.847657-.917969 3.753907-1.71875 5.703125-2.398438 2.894532-.988281 4.972656-3.542969 5.351563-6.578125l2.398437-18.964844h16.351563l2.402343 18.964844c.378907 3.035156 2.457032 5.589844 5.351563 6.578125 1.949219.679688 3.855469 1.480469 5.703125 2.398438 2.746094 1.347656 6.019531 1.007812 8.433594-.871094l15.101562-11.734375 11.554688 11.550781-11.738282 15.105469c-1.917968 2.402344-2.292968 5.691406-.960937 8.460938.921875 1.851562 1.722656 3.753906 2.402344 5.707031.988281 2.894531 3.539062 4.96875 6.574219 5.351562l18.96875 2.398438zm0 0"/><path d="m392 200c-22.089844 0-40 17.910156-40 40s17.910156 40 40 40 40-17.910156 40-40c-.027344-22.082031-17.917969-39.972656-40-40zm0 64c-13.253906 0-24-10.746094-24-24s10.746094-24 24-24 24 10.746094 24 24-10.746094 24-24 24zm0 0"/><path d="m288 128c22.089844 0 40-17.910156 40-40s-17.910156-40-40-40-40 17.910156-40 40c.027344 22.082031 17.917969 39.972656 40 40zm0-64c13.253906 0 24 10.746094 24 24s-10.746094 24-24 24-24-10.746094-24-24 10.746094-24 24-24zm0 0"/><path d="m288 352c-15.980469.019531-30.410156 9.550781-36.710938 24.234375-6.296874 14.6875-3.25 31.710937 7.75 43.300781l.050782.039063c12.570312 13.210937 32.484375 16.246093 48.417968 7.382812 15.933594-8.867187 23.859376-27.386719 19.265626-45.03125-4.59375-17.648437-20.539063-29.953125-38.773438-29.925781zm0 64c-6.539062.0625-12.804688-2.613281-17.28125-7.382812l-5.839844 5.460937 5.777344-5.535156c-4.28125-4.441407-6.667969-10.375-6.65625-16.542969 0-13.253906 10.746094-24 24-24s24 10.746094 24 24-10.746094 24-24 24zm0 0"/></svg>